M48
; DRILL file {KiCad 9.0.9-9.0.9~ubuntu24.04.1} date 2026-06-22T01:19:56-0300
; FORMAT={-:-/ absolute / metric / decimal}
; #@! TF.CreationDate,2026-06-22T01:19:56-03:00
; #@! TF.GenerationSoftware,Kicad,Pcbnew,9.0.9-9.0.9~ubuntu24.04.1
; #@! TF.FileFunction,Plated,1,2,PTH
FMAT,2
METRIC
; #@! TA.AperFunction,Plated,PTH,ViaDrill
T1C0.300
; #@! TA.AperFunction,Plated,PTH,ComponentDrill
T2C0.800
; #@! TA.AperFunction,Plated,PTH,ComponentDrill
T3C1.000
%
G90
G05
T1
X120.929Y-89.372
X121.033Y-38.939
X122.098Y-98.779
X122.117Y-52.702
X123.065Y-82.972
X123.065Y-94.647
X123.072Y-79.125
X126.349Y-81.669
X126.701Y-61.971
X126.932Y-79.086
X128.005Y-84.234
X128.028Y-79.12
X128.04Y-85.483
X128.721Y-67.693
X128.752Y-91.909
X129.643Y-97.705
X129.678Y-65.121
X130.237Y-43.933
X130.729Y-77.965
X130.82Y-85.086
X131.013Y-76.581
X132.612Y-52.762
X133.064Y-86.305
X134.266Y-50.153
X134.321Y-84.478
X134.721Y-38.27
X135.924Y-54.415
X135.981Y-60.057
X136.004Y-62.732
X136.02Y-80.64
X136.022Y-52.751
X136.024Y-76.036
X136.024Y-79.389
X136.057Y-42.886
X136.406Y-100.3
X136.507Y-67.036
X136.517Y-39.174
X136.852Y-81.669
X138.021Y-60.887
X138.242Y-32.156
X138.685Y-100.036
X138.944Y-55.432
X139.797Y-79.414
X139.797Y-81.707
X140.879Y-57.97
X140.912Y-49.563
X142.711Y-39.967
X145.003Y-35.97
X145.053Y-80.379
X145.556Y-39.008
X145.937Y-85.754
X146.377Y-62.471
X146.539Y-34.639
X146.657Y-80.278
X146.671Y-39.947
X147.547Y-72.638
X147.563Y-33.872
X148.105Y-77.148
X149.881Y-79.463
X149.881Y-83.497
X149.949Y-33.237
X150.581Y-32.371
X152.596Y-81.185
X152.888Y-32.222
X153.47Y-125.8
X153.47Y-124.334
X154.936Y-71.363
X156.322Y-73.892
X156.517Y-119.162
X158.09Y-76.363
X158.237Y-32.061
X160.438Y-81.127
X161.504Y-77.902
X161.611Y-82.636
X161.774Y-85.617
X163.019Y-64.914
X163.506Y-62.584
X163.551Y-87.348
X163.618Y-81.861
X163.626Y-84.574
X163.894Y-126.124
X164.862Y-71.462
X164.87Y-84.454
X165.65Y-70.098
X168.625Y-37.346
X169.018Y-82.322
X170.6Y-80.838
X172.852Y-124.378
X172.895Y-48.494
X173.202Y-93.699
X173.98Y-51.044
X174.223Y-96.235
X175.064Y-53.607
X175.118Y-98.784
X176.02Y-56.114
X176.046Y-101.306
X176.094Y-32.223
X176.905Y-103.736
X176.992Y-58.664
X177.911Y-106.332
X177.966Y-61.194
X179.013Y-63.734
X179.055Y-108.842
X179.957Y-111.489
X180.033Y-66.284
X181.098Y-62.453
X181.293Y-107.645
X181.9Y-30.77
X181.99Y-52.296
X182.048Y-97.443
X183.003Y-114.019
X183.017Y-68.814
X185.99Y-32.395
X186.18Y-80.864
X188.079Y-36.726
X188.278Y-81.936
X191.761Y-80.03
X193.001Y-105.062
X193.102Y-59.916
X193.352Y-124.878
X193.984Y-57.352
X194.005Y-102.558
X195.019Y-53.9
X195.731Y-51.297
X195.986Y-110.097
X196.003Y-64.988
X197.998Y-71.374
X198.045Y-116.6
X199.947Y-72.656
X200.022Y-117.795
X202.016Y-119.129
X202.054Y-73.924
X205.277Y-32.355
X207.309Y-36.918
X207.814Y-82.37
X209.503Y-80.989
X212.987Y-124.866
X213.019Y-70.075
X213.053Y-115.298
X214.965Y-76.376
X215.03Y-121.659
X217.019Y-112.718
X217.111Y-53.809
X217.133Y-50.977
X217.175Y-67.464
X224.758Y-32.235
X225.339Y-80.203
X226.644Y-36.783
X227.082Y-103.852
X227.104Y-82.631
X227.331Y-123.706
X228.828Y-81.001
X231.144Y-124.888
X231.658Y-62.438
X231.955Y-59.934
X233.644Y-55.234
X233.651Y-51.695
X235.422Y-33.138
X235.474Y-32.205
X235.501Y-51.659
X235.501Y-55.18
X235.529Y-80.456
X238.994Y-59.941
X243.894Y-32.581
X244.296Y-80.611
X245.085Y-54.995
X245.657Y-52.482
X245.903Y-94.976
X245.928Y-64.005
X245.989Y-91.114
X246.11Y-102.986
X246.808Y-98.841
X246.857Y-91.307
X246.978Y-66.37
X247.023Y-108.868
X247.043Y-101.957
X247.068Y-88.595
X247.902Y-97.133
X247.902Y-103.715
X247.909Y-88.542
X247.958Y-96.101
X248.02Y-68.91
X248.164Y-86.184
X248.166Y-107.489
X248.166Y-116.577
X248.683Y-99.4
X248.694Y-106.381
X248.791Y-32.547
X249.047Y-71.45
X249.059Y-93.826
X249.083Y-86.414
X249.09Y-81.725
X249.724Y-100.613
X249.818Y-119.232
X249.958Y-84.788
X250.02Y-73.949
X250.159Y-34.816
X250.795Y-95.462
X250.795Y-121.352
X250.892Y-87.222
X250.982Y-35.631
X251.093Y-76.56
X251.357Y-89.876
X251.627Y-32.512
X251.763Y-127.567
X251.912Y-79.053
X252.121Y-56.2
X252.13Y-42.201
X253.1Y-58.83
X253.106Y-44.741
X253.236Y-128.373
X253.35Y-92.093
X253.92Y-47.218
X254.005Y-115.272
X254.07Y-61.25
X254.127Y-97.666
X254.178Y-80.246
X254.688Y-39.617
X254.718Y-81.61
X254.719Y-117.847
X254.9Y-53.63
X255.011Y-93.086
X255.072Y-90.482
X255.972Y-118.258
X255.98Y-115.127
X256.029Y-98.509
X256.062Y-111.851
X256.229Y-36.585
X256.24Y-51.11
X256.742Y-117.127
X256.755Y-114.006
X256.827Y-109.569
X256.867Y-104.403
X257.502Y-32.328
X257.796Y-43.477
X257.907Y-46.038
X263.956Y-80.246
T2
X125.085Y-65.153
X125.085Y-67.693
X125.085Y-70.233
X125.085Y-72.773
X125.085Y-75.313
X125.085Y-77.853
X125.085Y-80.393
X125.085Y-82.933
X132.705Y-65.153
X132.705Y-67.693
X132.705Y-70.233
X132.705Y-72.773
X132.705Y-75.313
X132.705Y-77.853
X132.705Y-80.393
X132.705Y-82.933
X137.964Y-41.454
X137.964Y-43.994
X137.964Y-46.534
X137.964Y-49.074
X137.964Y-51.614
X137.964Y-54.154
X137.964Y-56.694
X137.964Y-59.234
X145.584Y-41.454
X145.584Y-43.994
X145.584Y-46.534
X145.584Y-49.074
X145.584Y-51.614
X145.584Y-54.154
X145.584Y-56.694
X145.584Y-59.234
X151.291Y-38.334
X151.291Y-40.874
X151.291Y-43.414
X151.291Y-45.954
X151.291Y-48.494
X151.291Y-51.034
X151.291Y-53.574
X151.291Y-56.114
X151.291Y-58.654
X151.291Y-61.194
X151.291Y-63.734
X151.291Y-66.274
X151.291Y-68.814
X151.291Y-71.354
X151.291Y-73.894
X151.291Y-76.434
X151.688Y-83.526
X151.688Y-86.066
X151.688Y-88.606
X151.688Y-91.146
X151.688Y-93.686
X151.688Y-96.226
X151.688Y-98.766
X151.688Y-101.306
X151.688Y-103.846
X151.688Y-106.386
X151.688Y-108.926
X151.688Y-111.466
X151.688Y-114.006
X151.688Y-116.546
X151.688Y-119.086
X151.688Y-121.626
X166.531Y-38.334
X166.531Y-40.874
X166.531Y-43.414
X166.531Y-45.954
X166.531Y-48.494
X166.531Y-51.034
X166.531Y-53.574
X166.531Y-56.114
X166.531Y-58.654
X166.531Y-61.194
X166.531Y-63.734
X166.531Y-66.274
X166.531Y-68.814
X166.531Y-71.354
X166.531Y-73.894
X166.531Y-76.434
X166.928Y-83.526
X166.928Y-86.066
X166.928Y-88.606
X166.928Y-91.146
X166.928Y-93.686
X166.928Y-96.226
X166.928Y-98.766
X166.928Y-101.306
X166.928Y-103.846
X166.928Y-106.386
X166.928Y-108.926
X166.928Y-111.466
X166.928Y-114.006
X166.928Y-116.546
X166.928Y-119.086
X166.928Y-121.626
X170.721Y-38.334
X170.721Y-40.874
X170.721Y-43.414
X170.721Y-45.954
X170.721Y-48.494
X170.721Y-51.034
X170.721Y-53.574
X170.721Y-56.114
X170.721Y-58.654
X170.721Y-61.194
X170.721Y-63.734
X170.721Y-66.274
X170.721Y-68.814
X170.721Y-71.354
X170.721Y-73.894
X170.721Y-76.434
X171.038Y-83.526
X171.038Y-86.066
X171.038Y-88.606
X171.038Y-91.146
X171.038Y-93.686
X171.038Y-96.226
X171.038Y-98.766
X171.038Y-101.306
X171.038Y-103.846
X171.038Y-106.386
X171.038Y-108.926
X171.038Y-111.466
X171.038Y-114.006
X171.038Y-116.546
X171.038Y-119.086
X171.038Y-121.626
X185.961Y-38.334
X185.961Y-40.874
X185.961Y-43.414
X185.961Y-45.954
X185.961Y-48.494
X185.961Y-51.034
X185.961Y-53.574
X185.961Y-56.114
X185.961Y-58.654
X185.961Y-61.194
X185.961Y-63.734
X185.961Y-66.274
X185.961Y-68.814
X185.961Y-71.354
X185.961Y-73.894
X185.961Y-76.434
X186.278Y-83.526
X186.278Y-86.066
X186.278Y-88.606
X186.278Y-91.146
X186.278Y-93.686
X186.278Y-96.226
X186.278Y-98.766
X186.278Y-101.306
X186.278Y-103.846
X186.278Y-106.386
X186.278Y-108.926
X186.278Y-111.466
X186.278Y-114.006
X186.278Y-116.546
X186.278Y-119.086
X186.278Y-121.626
X190.041Y-38.334
X190.041Y-40.874
X190.041Y-43.414
X190.041Y-45.954
X190.041Y-48.494
X190.041Y-51.034
X190.041Y-53.574
X190.041Y-56.114
X190.041Y-58.654
X190.041Y-61.194
X190.041Y-63.734
X190.041Y-66.274
X190.041Y-68.814
X190.041Y-71.354
X190.041Y-73.894
X190.041Y-76.434
X190.358Y-83.526
X190.358Y-86.066
X190.358Y-88.606
X190.358Y-91.146
X190.358Y-93.686
X190.358Y-96.226
X190.358Y-98.766
X190.358Y-101.306
X190.358Y-103.846
X190.358Y-106.386
X190.358Y-108.926
X190.358Y-111.466
X190.358Y-114.006
X190.358Y-116.546
X190.358Y-119.086
X190.358Y-121.626
X205.281Y-38.334
X205.281Y-40.874
X205.281Y-43.414
X205.281Y-45.954
X205.281Y-48.494
X205.281Y-51.034
X205.281Y-53.574
X205.281Y-56.114
X205.281Y-58.654
X205.281Y-61.194
X205.281Y-63.734
X205.281Y-66.274
X205.281Y-68.814
X205.281Y-71.354
X205.281Y-73.894
X205.281Y-76.434
X205.598Y-83.526
X205.598Y-86.066
X205.598Y-88.606
X205.598Y-91.146
X205.598Y-93.686
X205.598Y-96.226
X205.598Y-98.766
X205.598Y-101.306
X205.598Y-103.846
X205.598Y-106.386
X205.598Y-108.926
X205.598Y-111.466
X205.598Y-114.006
X205.598Y-116.546
X205.598Y-119.086
X205.598Y-121.626
X209.381Y-38.334
X209.381Y-40.874
X209.381Y-43.414
X209.381Y-45.954
X209.381Y-48.494
X209.381Y-51.034
X209.381Y-53.574
X209.381Y-56.114
X209.381Y-58.654
X209.381Y-61.194
X209.381Y-63.734
X209.381Y-66.274
X209.381Y-68.814
X209.381Y-71.354
X209.381Y-73.894
X209.381Y-76.434
X209.698Y-83.526
X209.698Y-86.066
X209.698Y-88.606
X209.698Y-91.146
X209.698Y-93.686
X209.698Y-96.226
X209.698Y-98.766
X209.698Y-101.306
X209.698Y-103.846
X209.698Y-106.386
X209.698Y-108.926
X209.698Y-111.466
X209.698Y-114.006
X209.698Y-116.546
X209.698Y-119.086
X209.698Y-121.626
X224.621Y-38.334
X224.621Y-40.874
X224.621Y-43.414
X224.621Y-45.954
X224.621Y-48.494
X224.621Y-51.034
X224.621Y-53.574
X224.621Y-56.114
X224.621Y-58.654
X224.621Y-61.194
X224.621Y-63.734
X224.621Y-66.274
X224.621Y-68.814
X224.621Y-71.354
X224.621Y-73.894
X224.621Y-76.434
X224.938Y-83.526
X224.938Y-86.066
X224.938Y-88.606
X224.938Y-91.146
X224.938Y-93.686
X224.938Y-96.226
X224.938Y-98.766
X224.938Y-101.306
X224.938Y-103.846
X224.938Y-106.386
X224.938Y-108.926
X224.938Y-111.466
X224.938Y-114.006
X224.938Y-116.546
X224.938Y-119.086
X224.938Y-121.626
X228.721Y-38.334
X228.721Y-40.874
X228.721Y-43.414
X228.721Y-45.954
X228.721Y-48.494
X228.721Y-51.034
X228.721Y-53.574
X228.721Y-56.114
X228.721Y-58.654
X228.721Y-61.194
X228.721Y-63.734
X228.721Y-66.274
X228.721Y-68.814
X228.721Y-71.354
X228.721Y-73.894
X228.721Y-76.434
X229.038Y-83.526
X229.038Y-86.066
X229.038Y-88.606
X229.038Y-91.146
X229.038Y-93.686
X229.038Y-96.226
X229.038Y-98.766
X229.038Y-101.306
X229.038Y-103.846
X229.038Y-106.386
X229.038Y-108.926
X229.038Y-111.466
X229.038Y-114.006
X229.038Y-116.546
X229.038Y-119.086
X229.038Y-121.626
X243.961Y-38.334
X243.961Y-40.874
X243.961Y-43.414
X243.961Y-45.954
X243.961Y-48.494
X243.961Y-51.034
X243.961Y-53.574
X243.961Y-56.114
X243.961Y-58.654
X243.961Y-61.194
X243.961Y-63.734
X243.961Y-66.274
X243.961Y-68.814
X243.961Y-71.354
X243.961Y-73.894
X243.961Y-76.434
X244.278Y-83.526
X244.278Y-86.066
X244.278Y-88.606
X244.278Y-91.146
X244.278Y-93.686
X244.278Y-96.226
X244.278Y-98.766
X244.278Y-101.306
X244.278Y-103.846
X244.278Y-106.386
X244.278Y-108.926
X244.278Y-111.466
X244.278Y-114.006
X244.278Y-116.546
X244.278Y-119.086
X244.278Y-121.626
X259.91Y-40.97
X259.91Y-43.51
X259.91Y-46.05
X259.91Y-48.59
X259.91Y-51.13
X259.91Y-53.67
X259.91Y-56.21
X259.91Y-58.75
X259.91Y-61.29
X259.91Y-63.83
X259.91Y-66.37
X259.91Y-68.91
X259.91Y-71.45
X259.91Y-73.99
X259.91Y-76.53
X259.91Y-79.07
X259.91Y-81.61
X259.91Y-84.15
X259.91Y-86.69
X259.91Y-89.23
X259.91Y-91.77
X259.91Y-94.31
X259.91Y-96.85
X259.91Y-99.39
X259.91Y-101.93
X259.91Y-104.47
X259.91Y-107.01
X259.91Y-109.55
X259.91Y-112.09
X259.91Y-114.63
X259.91Y-117.17
X259.91Y-119.71
X262.45Y-40.97
X262.45Y-43.51
X262.45Y-46.05
X262.45Y-48.59
X262.45Y-51.13
X262.45Y-53.67
X262.45Y-56.21
X262.45Y-58.75
X262.45Y-61.29
X262.45Y-63.83
X262.45Y-66.37
X262.45Y-68.91
X262.45Y-71.45
X262.45Y-73.99
X262.45Y-76.53
X262.45Y-79.07
X262.45Y-81.61
X262.45Y-84.15
X262.45Y-86.69
X262.45Y-89.23
X262.45Y-91.77
X262.45Y-94.31
X262.45Y-96.85
X262.45Y-99.39
X262.45Y-101.93
X262.45Y-104.47
X262.45Y-107.01
X262.45Y-109.55
X262.45Y-112.09
X262.45Y-114.63
X262.45Y-117.17
X262.45Y-119.71
X264.99Y-40.97
X264.99Y-43.51
X264.99Y-46.05
X264.99Y-48.59
X264.99Y-51.13
X264.99Y-53.67
X264.99Y-56.21
X264.99Y-58.75
X264.99Y-61.29
X264.99Y-63.83
X264.99Y-66.37
X264.99Y-68.91
X264.99Y-71.45
X264.99Y-73.99
X264.99Y-76.53
X264.99Y-79.07
X264.99Y-81.61
X264.99Y-84.15
X264.99Y-86.69
X264.99Y-89.23
X264.99Y-91.77
X264.99Y-94.31
X264.99Y-96.85
X264.99Y-99.39
X264.99Y-101.93
X264.99Y-104.47
X264.99Y-107.01
X264.99Y-109.55
X264.99Y-112.09
X264.99Y-114.63
X264.99Y-117.17
X264.99Y-119.71
T3
X125.92Y-41.526
X125.92Y-45.925
X125.92Y-50.172
X125.92Y-54.419
X125.92Y-58.665
X126.298Y-89.303
X126.298Y-91.843
X126.298Y-94.383
X128.46Y-41.526
X128.46Y-45.925
X128.46Y-50.172
X128.46Y-54.419
X128.46Y-58.665
X131.0Y-41.526
X131.0Y-45.925
X131.0Y-50.172
X131.0Y-54.419
X131.0Y-58.665
X133.032Y-89.303
X133.032Y-91.843
X133.032Y-94.383
X138.281Y-35.914
X139.127Y-89.303
X139.127Y-91.843
X139.127Y-94.383
X139.71Y-63.854
X139.71Y-68.444
X139.71Y-73.034
X139.71Y-77.624
X140.821Y-35.914
X142.25Y-63.854
X142.25Y-68.444
X142.25Y-73.034
X142.25Y-77.624
X143.361Y-35.914
X144.79Y-63.854
X144.79Y-68.444
X144.79Y-73.034
X144.79Y-77.624
X145.053Y-89.303
X145.053Y-91.843
X145.053Y-94.383
M30
