%TF.GenerationSoftware,KiCad,Pcbnew,9.0.9-9.0.9~ubuntu24.04.1*%
%TF.CreationDate,2026-06-22T01:19:49-03:00*%
%TF.ProjectId,mem_board,6d656d5f-626f-4617-9264-2e6b69636164,rev?*%
%TF.SameCoordinates,Original*%
%TF.FileFunction,Legend,Top*%
%TF.FilePolarity,Positive*%
%FSLAX46Y46*%
G04 Gerber Fmt 4.6, Leading zero omitted, Abs format (unit mm)*
G04 Created by KiCad (PCBNEW 9.0.9-9.0.9~ubuntu24.04.1) date 2026-06-22 01:19:49*
%MOMM*%
%LPD*%
G01*
G04 APERTURE LIST*
%ADD10C,0.100000*%
%ADD11C,0.125000*%
%ADD12C,0.200000*%
%ADD13C,0.300000*%
%ADD14C,0.150000*%
%ADD15C,0.120000*%
G04 APERTURE END LIST*
D10*
X121608000Y-102100000D02*
X146868000Y-102100000D01*
X146868000Y-106020000D01*
X121608000Y-106020000D01*
X121608000Y-102100000D01*
X125608000Y-102100000D02*
X146868000Y-102100000D01*
X146868000Y-106020000D01*
X125608000Y-106020000D01*
X125608000Y-102100000D01*
G36*
X125608000Y-102100000D02*
G01*
X146868000Y-102100000D01*
X146868000Y-106020000D01*
X125608000Y-106020000D01*
X125608000Y-102100000D01*
G37*
X203170000Y-143915000D02*
X202560000Y-143915000D01*
D11*
X122081664Y-107817309D02*
X121748331Y-107817309D01*
X121748331Y-108341119D02*
X121748331Y-107341119D01*
X121748331Y-107341119D02*
X122224521Y-107341119D01*
X123034045Y-108341119D02*
X123034045Y-107817309D01*
X123034045Y-107817309D02*
X122986426Y-107722071D01*
X122986426Y-107722071D02*
X122891188Y-107674452D01*
X122891188Y-107674452D02*
X122700712Y-107674452D01*
X122700712Y-107674452D02*
X122605474Y-107722071D01*
X123034045Y-108293500D02*
X122938807Y-108341119D01*
X122938807Y-108341119D02*
X122700712Y-108341119D01*
X122700712Y-108341119D02*
X122605474Y-108293500D01*
X122605474Y-108293500D02*
X122557855Y-108198261D01*
X122557855Y-108198261D02*
X122557855Y-108103023D01*
X122557855Y-108103023D02*
X122605474Y-108007785D01*
X122605474Y-108007785D02*
X122700712Y-107960166D01*
X122700712Y-107960166D02*
X122938807Y-107960166D01*
X122938807Y-107960166D02*
X123034045Y-107912547D01*
X123510236Y-108341119D02*
X123510236Y-107341119D01*
X123510236Y-107722071D02*
X123605474Y-107674452D01*
X123605474Y-107674452D02*
X123795950Y-107674452D01*
X123795950Y-107674452D02*
X123891188Y-107722071D01*
X123891188Y-107722071D02*
X123938807Y-107769690D01*
X123938807Y-107769690D02*
X123986426Y-107864928D01*
X123986426Y-107864928D02*
X123986426Y-108150642D01*
X123986426Y-108150642D02*
X123938807Y-108245880D01*
X123938807Y-108245880D02*
X123891188Y-108293500D01*
X123891188Y-108293500D02*
X123795950Y-108341119D01*
X123795950Y-108341119D02*
X123605474Y-108341119D01*
X123605474Y-108341119D02*
X123510236Y-108293500D01*
X124414998Y-108245880D02*
X124462617Y-108293500D01*
X124462617Y-108293500D02*
X124414998Y-108341119D01*
X124414998Y-108341119D02*
X124367379Y-108293500D01*
X124367379Y-108293500D02*
X124414998Y-108245880D01*
X124414998Y-108245880D02*
X124414998Y-108341119D01*
X124414998Y-107722071D02*
X124462617Y-107769690D01*
X124462617Y-107769690D02*
X124414998Y-107817309D01*
X124414998Y-107817309D02*
X124367379Y-107769690D01*
X124367379Y-107769690D02*
X124414998Y-107722071D01*
X124414998Y-107722071D02*
X124414998Y-107817309D01*
X125510236Y-107674452D02*
X125891188Y-107674452D01*
X125653093Y-108341119D02*
X125653093Y-107483976D01*
X125653093Y-107483976D02*
X125700712Y-107388738D01*
X125700712Y-107388738D02*
X125795950Y-107341119D01*
X125795950Y-107341119D02*
X125891188Y-107341119D01*
X126224522Y-108341119D02*
X126224522Y-107674452D01*
X126224522Y-107341119D02*
X126176903Y-107388738D01*
X126176903Y-107388738D02*
X126224522Y-107436357D01*
X126224522Y-107436357D02*
X126272141Y-107388738D01*
X126272141Y-107388738D02*
X126224522Y-107341119D01*
X126224522Y-107341119D02*
X126224522Y-107436357D01*
X126605474Y-108341119D02*
X127129283Y-107674452D01*
X126605474Y-107674452D02*
X127129283Y-108341119D01*
X128462617Y-107341119D02*
X128557855Y-107341119D01*
X128557855Y-107341119D02*
X128653093Y-107388738D01*
X128653093Y-107388738D02*
X128700712Y-107436357D01*
X128700712Y-107436357D02*
X128748331Y-107531595D01*
X128748331Y-107531595D02*
X128795950Y-107722071D01*
X128795950Y-107722071D02*
X128795950Y-107960166D01*
X128795950Y-107960166D02*
X128748331Y-108150642D01*
X128748331Y-108150642D02*
X128700712Y-108245880D01*
X128700712Y-108245880D02*
X128653093Y-108293500D01*
X128653093Y-108293500D02*
X128557855Y-108341119D01*
X128557855Y-108341119D02*
X128462617Y-108341119D01*
X128462617Y-108341119D02*
X128367379Y-108293500D01*
X128367379Y-108293500D02*
X128319760Y-108245880D01*
X128319760Y-108245880D02*
X128272141Y-108150642D01*
X128272141Y-108150642D02*
X128224522Y-107960166D01*
X128224522Y-107960166D02*
X128224522Y-107722071D01*
X128224522Y-107722071D02*
X128272141Y-107531595D01*
X128272141Y-107531595D02*
X128319760Y-107436357D01*
X128319760Y-107436357D02*
X128367379Y-107388738D01*
X128367379Y-107388738D02*
X128462617Y-107341119D01*
X129414998Y-107341119D02*
X129510236Y-107341119D01*
X129510236Y-107341119D02*
X129605474Y-107388738D01*
X129605474Y-107388738D02*
X129653093Y-107436357D01*
X129653093Y-107436357D02*
X129700712Y-107531595D01*
X129700712Y-107531595D02*
X129748331Y-107722071D01*
X129748331Y-107722071D02*
X129748331Y-107960166D01*
X129748331Y-107960166D02*
X129700712Y-108150642D01*
X129700712Y-108150642D02*
X129653093Y-108245880D01*
X129653093Y-108245880D02*
X129605474Y-108293500D01*
X129605474Y-108293500D02*
X129510236Y-108341119D01*
X129510236Y-108341119D02*
X129414998Y-108341119D01*
X129414998Y-108341119D02*
X129319760Y-108293500D01*
X129319760Y-108293500D02*
X129272141Y-108245880D01*
X129272141Y-108245880D02*
X129224522Y-108150642D01*
X129224522Y-108150642D02*
X129176903Y-107960166D01*
X129176903Y-107960166D02*
X129176903Y-107722071D01*
X129176903Y-107722071D02*
X129224522Y-107531595D01*
X129224522Y-107531595D02*
X129272141Y-107436357D01*
X129272141Y-107436357D02*
X129319760Y-107388738D01*
X129319760Y-107388738D02*
X129414998Y-107341119D01*
D12*
X122025292Y-104644600D02*
X122239578Y-104716028D01*
X122239578Y-104716028D02*
X122596720Y-104716028D01*
X122596720Y-104716028D02*
X122739578Y-104644600D01*
X122739578Y-104644600D02*
X122811006Y-104573171D01*
X122811006Y-104573171D02*
X122882435Y-104430314D01*
X122882435Y-104430314D02*
X122882435Y-104287457D01*
X122882435Y-104287457D02*
X122811006Y-104144600D01*
X122811006Y-104144600D02*
X122739578Y-104073171D01*
X122739578Y-104073171D02*
X122596720Y-104001742D01*
X122596720Y-104001742D02*
X122311006Y-103930314D01*
X122311006Y-103930314D02*
X122168149Y-103858885D01*
X122168149Y-103858885D02*
X122096720Y-103787457D01*
X122096720Y-103787457D02*
X122025292Y-103644600D01*
X122025292Y-103644600D02*
X122025292Y-103501742D01*
X122025292Y-103501742D02*
X122096720Y-103358885D01*
X122096720Y-103358885D02*
X122168149Y-103287457D01*
X122168149Y-103287457D02*
X122311006Y-103216028D01*
X122311006Y-103216028D02*
X122668149Y-103216028D01*
X122668149Y-103216028D02*
X122882435Y-103287457D01*
X123525291Y-104716028D02*
X123525291Y-103216028D01*
X123525291Y-103216028D02*
X124382434Y-104716028D01*
X124382434Y-104716028D02*
X124382434Y-103216028D01*
X125096720Y-104573171D02*
X125168149Y-104644600D01*
X125168149Y-104644600D02*
X125096720Y-104716028D01*
X125096720Y-104716028D02*
X125025292Y-104644600D01*
X125025292Y-104644600D02*
X125096720Y-104573171D01*
X125096720Y-104573171D02*
X125096720Y-104716028D01*
X125096720Y-103787457D02*
X125168149Y-103858885D01*
X125168149Y-103858885D02*
X125096720Y-103930314D01*
X125096720Y-103930314D02*
X125025292Y-103858885D01*
X125025292Y-103858885D02*
X125096720Y-103787457D01*
X125096720Y-103787457D02*
X125096720Y-103930314D01*
D13*
X212933510Y-32858828D02*
X212933510Y-31358828D01*
X212933510Y-31358828D02*
X213433510Y-32430257D01*
X213433510Y-32430257D02*
X213933510Y-31358828D01*
X213933510Y-31358828D02*
X213933510Y-32858828D01*
X214862082Y-32858828D02*
X214719225Y-32787400D01*
X214719225Y-32787400D02*
X214647796Y-32715971D01*
X214647796Y-32715971D02*
X214576368Y-32573114D01*
X214576368Y-32573114D02*
X214576368Y-32144542D01*
X214576368Y-32144542D02*
X214647796Y-32001685D01*
X214647796Y-32001685D02*
X214719225Y-31930257D01*
X214719225Y-31930257D02*
X214862082Y-31858828D01*
X214862082Y-31858828D02*
X215076368Y-31858828D01*
X215076368Y-31858828D02*
X215219225Y-31930257D01*
X215219225Y-31930257D02*
X215290654Y-32001685D01*
X215290654Y-32001685D02*
X215362082Y-32144542D01*
X215362082Y-32144542D02*
X215362082Y-32573114D01*
X215362082Y-32573114D02*
X215290654Y-32715971D01*
X215290654Y-32715971D02*
X215219225Y-32787400D01*
X215219225Y-32787400D02*
X215076368Y-32858828D01*
X215076368Y-32858828D02*
X214862082Y-32858828D01*
X216647797Y-32858828D02*
X216647797Y-31358828D01*
X216647797Y-32787400D02*
X216504939Y-32858828D01*
X216504939Y-32858828D02*
X216219225Y-32858828D01*
X216219225Y-32858828D02*
X216076368Y-32787400D01*
X216076368Y-32787400D02*
X216004939Y-32715971D01*
X216004939Y-32715971D02*
X215933511Y-32573114D01*
X215933511Y-32573114D02*
X215933511Y-32144542D01*
X215933511Y-32144542D02*
X216004939Y-32001685D01*
X216004939Y-32001685D02*
X216076368Y-31930257D01*
X216076368Y-31930257D02*
X216219225Y-31858828D01*
X216219225Y-31858828D02*
X216504939Y-31858828D01*
X216504939Y-31858828D02*
X216647797Y-31930257D01*
X217362082Y-32715971D02*
X217433511Y-32787400D01*
X217433511Y-32787400D02*
X217362082Y-32858828D01*
X217362082Y-32858828D02*
X217290654Y-32787400D01*
X217290654Y-32787400D02*
X217362082Y-32715971D01*
X217362082Y-32715971D02*
X217362082Y-32858828D01*
X217362082Y-31930257D02*
X217433511Y-32001685D01*
X217433511Y-32001685D02*
X217362082Y-32073114D01*
X217362082Y-32073114D02*
X217290654Y-32001685D01*
X217290654Y-32001685D02*
X217362082Y-31930257D01*
X217362082Y-31930257D02*
X217362082Y-32073114D01*
X219219225Y-32858828D02*
X219219225Y-31358828D01*
X219219225Y-31358828D02*
X219790654Y-31358828D01*
X219790654Y-31358828D02*
X219933511Y-31430257D01*
X219933511Y-31430257D02*
X220004940Y-31501685D01*
X220004940Y-31501685D02*
X220076368Y-31644542D01*
X220076368Y-31644542D02*
X220076368Y-31858828D01*
X220076368Y-31858828D02*
X220004940Y-32001685D01*
X220004940Y-32001685D02*
X219933511Y-32073114D01*
X219933511Y-32073114D02*
X219790654Y-32144542D01*
X219790654Y-32144542D02*
X219219225Y-32144542D01*
X220719225Y-32858828D02*
X220719225Y-31358828D01*
X220719225Y-31358828D02*
X221076368Y-31358828D01*
X221076368Y-31358828D02*
X221290654Y-31430257D01*
X221290654Y-31430257D02*
X221433511Y-31573114D01*
X221433511Y-31573114D02*
X221504940Y-31715971D01*
X221504940Y-31715971D02*
X221576368Y-32001685D01*
X221576368Y-32001685D02*
X221576368Y-32215971D01*
X221576368Y-32215971D02*
X221504940Y-32501685D01*
X221504940Y-32501685D02*
X221433511Y-32644542D01*
X221433511Y-32644542D02*
X221290654Y-32787400D01*
X221290654Y-32787400D02*
X221076368Y-32858828D01*
X221076368Y-32858828D02*
X220719225Y-32858828D01*
X222147797Y-32787400D02*
X222362083Y-32858828D01*
X222362083Y-32858828D02*
X222719225Y-32858828D01*
X222719225Y-32858828D02*
X222862083Y-32787400D01*
X222862083Y-32787400D02*
X222933511Y-32715971D01*
X222933511Y-32715971D02*
X223004940Y-32573114D01*
X223004940Y-32573114D02*
X223004940Y-32430257D01*
X223004940Y-32430257D02*
X222933511Y-32287400D01*
X222933511Y-32287400D02*
X222862083Y-32215971D01*
X222862083Y-32215971D02*
X222719225Y-32144542D01*
X222719225Y-32144542D02*
X222433511Y-32073114D01*
X222433511Y-32073114D02*
X222290654Y-32001685D01*
X222290654Y-32001685D02*
X222219225Y-31930257D01*
X222219225Y-31930257D02*
X222147797Y-31787400D01*
X222147797Y-31787400D02*
X222147797Y-31644542D01*
X222147797Y-31644542D02*
X222219225Y-31501685D01*
X222219225Y-31501685D02*
X222290654Y-31430257D01*
X222290654Y-31430257D02*
X222433511Y-31358828D01*
X222433511Y-31358828D02*
X222790654Y-31358828D01*
X222790654Y-31358828D02*
X223004940Y-31430257D01*
X224433511Y-32858828D02*
X223576368Y-32858828D01*
X224004939Y-32858828D02*
X224004939Y-31358828D01*
X224004939Y-31358828D02*
X223862082Y-31573114D01*
X223862082Y-31573114D02*
X223719225Y-31715971D01*
X223719225Y-31715971D02*
X223576368Y-31787400D01*
X225362082Y-31358828D02*
X225504939Y-31358828D01*
X225504939Y-31358828D02*
X225647796Y-31430257D01*
X225647796Y-31430257D02*
X225719225Y-31501685D01*
X225719225Y-31501685D02*
X225790653Y-31644542D01*
X225790653Y-31644542D02*
X225862082Y-31930257D01*
X225862082Y-31930257D02*
X225862082Y-32287400D01*
X225862082Y-32287400D02*
X225790653Y-32573114D01*
X225790653Y-32573114D02*
X225719225Y-32715971D01*
X225719225Y-32715971D02*
X225647796Y-32787400D01*
X225647796Y-32787400D02*
X225504939Y-32858828D01*
X225504939Y-32858828D02*
X225362082Y-32858828D01*
X225362082Y-32858828D02*
X225219225Y-32787400D01*
X225219225Y-32787400D02*
X225147796Y-32715971D01*
X225147796Y-32715971D02*
X225076367Y-32573114D01*
X225076367Y-32573114D02*
X225004939Y-32287400D01*
X225004939Y-32287400D02*
X225004939Y-31930257D01*
X225004939Y-31930257D02*
X225076367Y-31644542D01*
X225076367Y-31644542D02*
X225147796Y-31501685D01*
X225147796Y-31501685D02*
X225219225Y-31430257D01*
X225219225Y-31430257D02*
X225362082Y-31358828D01*
X226790653Y-31358828D02*
X226933510Y-31358828D01*
X226933510Y-31358828D02*
X227076367Y-31430257D01*
X227076367Y-31430257D02*
X227147796Y-31501685D01*
X227147796Y-31501685D02*
X227219224Y-31644542D01*
X227219224Y-31644542D02*
X227290653Y-31930257D01*
X227290653Y-31930257D02*
X227290653Y-32287400D01*
X227290653Y-32287400D02*
X227219224Y-32573114D01*
X227219224Y-32573114D02*
X227147796Y-32715971D01*
X227147796Y-32715971D02*
X227076367Y-32787400D01*
X227076367Y-32787400D02*
X226933510Y-32858828D01*
X226933510Y-32858828D02*
X226790653Y-32858828D01*
X226790653Y-32858828D02*
X226647796Y-32787400D01*
X226647796Y-32787400D02*
X226576367Y-32715971D01*
X226576367Y-32715971D02*
X226504938Y-32573114D01*
X226504938Y-32573114D02*
X226433510Y-32287400D01*
X226433510Y-32287400D02*
X226433510Y-31930257D01*
X226433510Y-31930257D02*
X226504938Y-31644542D01*
X226504938Y-31644542D02*
X226576367Y-31501685D01*
X226576367Y-31501685D02*
X226647796Y-31430257D01*
X226647796Y-31430257D02*
X226790653Y-31358828D01*
X229719224Y-31858828D02*
X229719224Y-32858828D01*
X229362081Y-31287400D02*
X229004938Y-32358828D01*
X229004938Y-32358828D02*
X229933509Y-32358828D01*
X230504937Y-32858828D02*
X230504937Y-31358828D01*
X230504937Y-31358828D02*
X231004937Y-32430257D01*
X231004937Y-32430257D02*
X231504937Y-31358828D01*
X231504937Y-31358828D02*
X231504937Y-32858828D01*
X233076366Y-32858828D02*
X232576366Y-32144542D01*
X232219223Y-32858828D02*
X232219223Y-31358828D01*
X232219223Y-31358828D02*
X232790652Y-31358828D01*
X232790652Y-31358828D02*
X232933509Y-31430257D01*
X232933509Y-31430257D02*
X233004938Y-31501685D01*
X233004938Y-31501685D02*
X233076366Y-31644542D01*
X233076366Y-31644542D02*
X233076366Y-31858828D01*
X233076366Y-31858828D02*
X233004938Y-32001685D01*
X233004938Y-32001685D02*
X232933509Y-32073114D01*
X232933509Y-32073114D02*
X232790652Y-32144542D01*
X232790652Y-32144542D02*
X232219223Y-32144542D01*
X234362081Y-32858828D02*
X234362081Y-32073114D01*
X234362081Y-32073114D02*
X234290652Y-31930257D01*
X234290652Y-31930257D02*
X234147795Y-31858828D01*
X234147795Y-31858828D02*
X233862081Y-31858828D01*
X233862081Y-31858828D02*
X233719223Y-31930257D01*
X234362081Y-32787400D02*
X234219223Y-32858828D01*
X234219223Y-32858828D02*
X233862081Y-32858828D01*
X233862081Y-32858828D02*
X233719223Y-32787400D01*
X233719223Y-32787400D02*
X233647795Y-32644542D01*
X233647795Y-32644542D02*
X233647795Y-32501685D01*
X233647795Y-32501685D02*
X233719223Y-32358828D01*
X233719223Y-32358828D02*
X233862081Y-32287400D01*
X233862081Y-32287400D02*
X234219223Y-32287400D01*
X234219223Y-32287400D02*
X234362081Y-32215971D01*
X235076366Y-32858828D02*
X235076366Y-31858828D01*
X235076366Y-32001685D02*
X235147795Y-31930257D01*
X235147795Y-31930257D02*
X235290652Y-31858828D01*
X235290652Y-31858828D02*
X235504938Y-31858828D01*
X235504938Y-31858828D02*
X235647795Y-31930257D01*
X235647795Y-31930257D02*
X235719224Y-32073114D01*
X235719224Y-32073114D02*
X235719224Y-32858828D01*
X235719224Y-32073114D02*
X235790652Y-31930257D01*
X235790652Y-31930257D02*
X235933509Y-31858828D01*
X235933509Y-31858828D02*
X236147795Y-31858828D01*
X236147795Y-31858828D02*
X236290652Y-31930257D01*
X236290652Y-31930257D02*
X236362081Y-32073114D01*
X236362081Y-32073114D02*
X236362081Y-32858828D01*
X238147795Y-31501685D02*
X238219223Y-31430257D01*
X238219223Y-31430257D02*
X238362081Y-31358828D01*
X238362081Y-31358828D02*
X238719223Y-31358828D01*
X238719223Y-31358828D02*
X238862081Y-31430257D01*
X238862081Y-31430257D02*
X238933509Y-31501685D01*
X238933509Y-31501685D02*
X239004938Y-31644542D01*
X239004938Y-31644542D02*
X239004938Y-31787400D01*
X239004938Y-31787400D02*
X238933509Y-32001685D01*
X238933509Y-32001685D02*
X238076366Y-32858828D01*
X238076366Y-32858828D02*
X239004938Y-32858828D01*
X240290652Y-31358828D02*
X240004937Y-31358828D01*
X240004937Y-31358828D02*
X239862080Y-31430257D01*
X239862080Y-31430257D02*
X239790652Y-31501685D01*
X239790652Y-31501685D02*
X239647794Y-31715971D01*
X239647794Y-31715971D02*
X239576366Y-32001685D01*
X239576366Y-32001685D02*
X239576366Y-32573114D01*
X239576366Y-32573114D02*
X239647794Y-32715971D01*
X239647794Y-32715971D02*
X239719223Y-32787400D01*
X239719223Y-32787400D02*
X239862080Y-32858828D01*
X239862080Y-32858828D02*
X240147794Y-32858828D01*
X240147794Y-32858828D02*
X240290652Y-32787400D01*
X240290652Y-32787400D02*
X240362080Y-32715971D01*
X240362080Y-32715971D02*
X240433509Y-32573114D01*
X240433509Y-32573114D02*
X240433509Y-32215971D01*
X240433509Y-32215971D02*
X240362080Y-32073114D01*
X240362080Y-32073114D02*
X240290652Y-32001685D01*
X240290652Y-32001685D02*
X240147794Y-31930257D01*
X240147794Y-31930257D02*
X239862080Y-31930257D01*
X239862080Y-31930257D02*
X239719223Y-32001685D01*
X239719223Y-32001685D02*
X239647794Y-32073114D01*
X239647794Y-32073114D02*
X239576366Y-32215971D01*
X241004937Y-31501685D02*
X241076365Y-31430257D01*
X241076365Y-31430257D02*
X241219223Y-31358828D01*
X241219223Y-31358828D02*
X241576365Y-31358828D01*
X241576365Y-31358828D02*
X241719223Y-31430257D01*
X241719223Y-31430257D02*
X241790651Y-31501685D01*
X241790651Y-31501685D02*
X241862080Y-31644542D01*
X241862080Y-31644542D02*
X241862080Y-31787400D01*
X241862080Y-31787400D02*
X241790651Y-32001685D01*
X241790651Y-32001685D02*
X240933508Y-32858828D01*
X240933508Y-32858828D02*
X241862080Y-32858828D01*
X243219222Y-31358828D02*
X242504936Y-31358828D01*
X242504936Y-31358828D02*
X242433508Y-32073114D01*
X242433508Y-32073114D02*
X242504936Y-32001685D01*
X242504936Y-32001685D02*
X242647794Y-31930257D01*
X242647794Y-31930257D02*
X243004936Y-31930257D01*
X243004936Y-31930257D02*
X243147794Y-32001685D01*
X243147794Y-32001685D02*
X243219222Y-32073114D01*
X243219222Y-32073114D02*
X243290651Y-32215971D01*
X243290651Y-32215971D02*
X243290651Y-32573114D01*
X243290651Y-32573114D02*
X243219222Y-32715971D01*
X243219222Y-32715971D02*
X243147794Y-32787400D01*
X243147794Y-32787400D02*
X243004936Y-32858828D01*
X243004936Y-32858828D02*
X242647794Y-32858828D01*
X242647794Y-32858828D02*
X242504936Y-32787400D01*
X242504936Y-32787400D02*
X242433508Y-32715971D01*
X245076364Y-31358828D02*
X245076364Y-32573114D01*
X245076364Y-32573114D02*
X245147793Y-32715971D01*
X245147793Y-32715971D02*
X245219222Y-32787400D01*
X245219222Y-32787400D02*
X245362079Y-32858828D01*
X245362079Y-32858828D02*
X245647793Y-32858828D01*
X245647793Y-32858828D02*
X245790650Y-32787400D01*
X245790650Y-32787400D02*
X245862079Y-32715971D01*
X245862079Y-32715971D02*
X245933507Y-32573114D01*
X245933507Y-32573114D02*
X245933507Y-31358828D01*
X246647793Y-31858828D02*
X246647793Y-33358828D01*
X246647793Y-31930257D02*
X246790651Y-31858828D01*
X246790651Y-31858828D02*
X247076365Y-31858828D01*
X247076365Y-31858828D02*
X247219222Y-31930257D01*
X247219222Y-31930257D02*
X247290651Y-32001685D01*
X247290651Y-32001685D02*
X247362079Y-32144542D01*
X247362079Y-32144542D02*
X247362079Y-32573114D01*
X247362079Y-32573114D02*
X247290651Y-32715971D01*
X247290651Y-32715971D02*
X247219222Y-32787400D01*
X247219222Y-32787400D02*
X247076365Y-32858828D01*
X247076365Y-32858828D02*
X246790651Y-32858828D01*
X246790651Y-32858828D02*
X246647793Y-32787400D01*
X248933508Y-31858828D02*
X249504936Y-31858828D01*
X249147793Y-31358828D02*
X249147793Y-32644542D01*
X249147793Y-32644542D02*
X249219222Y-32787400D01*
X249219222Y-32787400D02*
X249362079Y-32858828D01*
X249362079Y-32858828D02*
X249504936Y-32858828D01*
X250219222Y-32858828D02*
X250076365Y-32787400D01*
X250076365Y-32787400D02*
X250004936Y-32715971D01*
X250004936Y-32715971D02*
X249933508Y-32573114D01*
X249933508Y-32573114D02*
X249933508Y-32144542D01*
X249933508Y-32144542D02*
X250004936Y-32001685D01*
X250004936Y-32001685D02*
X250076365Y-31930257D01*
X250076365Y-31930257D02*
X250219222Y-31858828D01*
X250219222Y-31858828D02*
X250433508Y-31858828D01*
X250433508Y-31858828D02*
X250576365Y-31930257D01*
X250576365Y-31930257D02*
X250647794Y-32001685D01*
X250647794Y-32001685D02*
X250719222Y-32144542D01*
X250719222Y-32144542D02*
X250719222Y-32573114D01*
X250719222Y-32573114D02*
X250647794Y-32715971D01*
X250647794Y-32715971D02*
X250576365Y-32787400D01*
X250576365Y-32787400D02*
X250433508Y-32858828D01*
X250433508Y-32858828D02*
X250219222Y-32858828D01*
X253290651Y-32858828D02*
X252433508Y-32858828D01*
X252862079Y-32858828D02*
X252862079Y-31358828D01*
X252862079Y-31358828D02*
X252719222Y-31573114D01*
X252719222Y-31573114D02*
X252576365Y-31715971D01*
X252576365Y-31715971D02*
X252433508Y-31787400D01*
X253933507Y-32858828D02*
X253933507Y-31358828D01*
X253933507Y-31358828D02*
X254433507Y-32430257D01*
X254433507Y-32430257D02*
X254933507Y-31358828D01*
X254933507Y-31358828D02*
X254933507Y-32858828D01*
X256504936Y-32858828D02*
X256004936Y-32144542D01*
X255647793Y-32858828D02*
X255647793Y-31358828D01*
X255647793Y-31358828D02*
X256219222Y-31358828D01*
X256219222Y-31358828D02*
X256362079Y-31430257D01*
X256362079Y-31430257D02*
X256433508Y-31501685D01*
X256433508Y-31501685D02*
X256504936Y-31644542D01*
X256504936Y-31644542D02*
X256504936Y-31858828D01*
X256504936Y-31858828D02*
X256433508Y-32001685D01*
X256433508Y-32001685D02*
X256362079Y-32073114D01*
X256362079Y-32073114D02*
X256219222Y-32144542D01*
X256219222Y-32144542D02*
X255647793Y-32144542D01*
X257362079Y-32858828D02*
X257219222Y-32787400D01*
X257219222Y-32787400D02*
X257147793Y-32715971D01*
X257147793Y-32715971D02*
X257076365Y-32573114D01*
X257076365Y-32573114D02*
X257076365Y-32144542D01*
X257076365Y-32144542D02*
X257147793Y-32001685D01*
X257147793Y-32001685D02*
X257219222Y-31930257D01*
X257219222Y-31930257D02*
X257362079Y-31858828D01*
X257362079Y-31858828D02*
X257576365Y-31858828D01*
X257576365Y-31858828D02*
X257719222Y-31930257D01*
X257719222Y-31930257D02*
X257790651Y-32001685D01*
X257790651Y-32001685D02*
X257862079Y-32144542D01*
X257862079Y-32144542D02*
X257862079Y-32573114D01*
X257862079Y-32573114D02*
X257790651Y-32715971D01*
X257790651Y-32715971D02*
X257719222Y-32787400D01*
X257719222Y-32787400D02*
X257576365Y-32858828D01*
X257576365Y-32858828D02*
X257362079Y-32858828D01*
X258504936Y-32858828D02*
X258504936Y-31858828D01*
X258504936Y-32001685D02*
X258576365Y-31930257D01*
X258576365Y-31930257D02*
X258719222Y-31858828D01*
X258719222Y-31858828D02*
X258933508Y-31858828D01*
X258933508Y-31858828D02*
X259076365Y-31930257D01*
X259076365Y-31930257D02*
X259147794Y-32073114D01*
X259147794Y-32073114D02*
X259147794Y-32858828D01*
X259147794Y-32073114D02*
X259219222Y-31930257D01*
X259219222Y-31930257D02*
X259362079Y-31858828D01*
X259362079Y-31858828D02*
X259576365Y-31858828D01*
X259576365Y-31858828D02*
X259719222Y-31930257D01*
X259719222Y-31930257D02*
X259790651Y-32073114D01*
X259790651Y-32073114D02*
X259790651Y-32858828D01*
D12*
X155437768Y-127979838D02*
X155437768Y-125979838D01*
X155437768Y-126932219D02*
X156580625Y-126932219D01*
X156580625Y-127979838D02*
X156580625Y-125979838D01*
X157533006Y-127979838D02*
X157533006Y-125979838D01*
X159533006Y-126075076D02*
X159342530Y-125979838D01*
X159342530Y-125979838D02*
X159056816Y-125979838D01*
X159056816Y-125979838D02*
X158771101Y-126075076D01*
X158771101Y-126075076D02*
X158580625Y-126265552D01*
X158580625Y-126265552D02*
X158485387Y-126456028D01*
X158485387Y-126456028D02*
X158390149Y-126836980D01*
X158390149Y-126836980D02*
X158390149Y-127122695D01*
X158390149Y-127122695D02*
X158485387Y-127503647D01*
X158485387Y-127503647D02*
X158580625Y-127694123D01*
X158580625Y-127694123D02*
X158771101Y-127884600D01*
X158771101Y-127884600D02*
X159056816Y-127979838D01*
X159056816Y-127979838D02*
X159247292Y-127979838D01*
X159247292Y-127979838D02*
X159533006Y-127884600D01*
X159533006Y-127884600D02*
X159628244Y-127789361D01*
X159628244Y-127789361D02*
X159628244Y-127122695D01*
X159628244Y-127122695D02*
X159247292Y-127122695D01*
X160485387Y-127979838D02*
X160485387Y-125979838D01*
X160485387Y-126932219D02*
X161628244Y-126932219D01*
X161628244Y-127979838D02*
X161628244Y-125979838D01*
X156163768Y-103130838D02*
X156163768Y-101130838D01*
X156163768Y-102083219D02*
X157306625Y-102083219D01*
X157306625Y-103130838D02*
X157306625Y-101130838D01*
X158259006Y-103130838D02*
X158259006Y-101130838D01*
X160259006Y-101226076D02*
X160068530Y-101130838D01*
X160068530Y-101130838D02*
X159782816Y-101130838D01*
X159782816Y-101130838D02*
X159497101Y-101226076D01*
X159497101Y-101226076D02*
X159306625Y-101416552D01*
X159306625Y-101416552D02*
X159211387Y-101607028D01*
X159211387Y-101607028D02*
X159116149Y-101987980D01*
X159116149Y-101987980D02*
X159116149Y-102273695D01*
X159116149Y-102273695D02*
X159211387Y-102654647D01*
X159211387Y-102654647D02*
X159306625Y-102845123D01*
X159306625Y-102845123D02*
X159497101Y-103035600D01*
X159497101Y-103035600D02*
X159782816Y-103130838D01*
X159782816Y-103130838D02*
X159973292Y-103130838D01*
X159973292Y-103130838D02*
X160259006Y-103035600D01*
X160259006Y-103035600D02*
X160354244Y-102940361D01*
X160354244Y-102940361D02*
X160354244Y-102273695D01*
X160354244Y-102273695D02*
X159973292Y-102273695D01*
X161211387Y-103130838D02*
X161211387Y-101130838D01*
X161211387Y-102083219D02*
X162354244Y-102083219D01*
X162354244Y-103130838D02*
X162354244Y-101130838D01*
X158107149Y-58275838D02*
X157154768Y-58275838D01*
X157154768Y-58275838D02*
X157154768Y-56275838D01*
X159154768Y-56275838D02*
X159535721Y-56275838D01*
X159535721Y-56275838D02*
X159726197Y-56371076D01*
X159726197Y-56371076D02*
X159916673Y-56561552D01*
X159916673Y-56561552D02*
X160011911Y-56942504D01*
X160011911Y-56942504D02*
X160011911Y-57609171D01*
X160011911Y-57609171D02*
X159916673Y-57990123D01*
X159916673Y-57990123D02*
X159726197Y-58180600D01*
X159726197Y-58180600D02*
X159535721Y-58275838D01*
X159535721Y-58275838D02*
X159154768Y-58275838D01*
X159154768Y-58275838D02*
X158964292Y-58180600D01*
X158964292Y-58180600D02*
X158773816Y-57990123D01*
X158773816Y-57990123D02*
X158678578Y-57609171D01*
X158678578Y-57609171D02*
X158678578Y-56942504D01*
X158678578Y-56942504D02*
X158773816Y-56561552D01*
X158773816Y-56561552D02*
X158964292Y-56371076D01*
X158964292Y-56371076D02*
X159154768Y-56275838D01*
X160678578Y-56275838D02*
X161154768Y-58275838D01*
X161154768Y-58275838D02*
X161535721Y-56847266D01*
X161535721Y-56847266D02*
X161916673Y-58275838D01*
X161916673Y-58275838D02*
X162392864Y-56275838D01*
X158541149Y-35224838D02*
X157588768Y-35224838D01*
X157588768Y-35224838D02*
X157588768Y-33224838D01*
X159588768Y-33224838D02*
X159969721Y-33224838D01*
X159969721Y-33224838D02*
X160160197Y-33320076D01*
X160160197Y-33320076D02*
X160350673Y-33510552D01*
X160350673Y-33510552D02*
X160445911Y-33891504D01*
X160445911Y-33891504D02*
X160445911Y-34558171D01*
X160445911Y-34558171D02*
X160350673Y-34939123D01*
X160350673Y-34939123D02*
X160160197Y-35129600D01*
X160160197Y-35129600D02*
X159969721Y-35224838D01*
X159969721Y-35224838D02*
X159588768Y-35224838D01*
X159588768Y-35224838D02*
X159398292Y-35129600D01*
X159398292Y-35129600D02*
X159207816Y-34939123D01*
X159207816Y-34939123D02*
X159112578Y-34558171D01*
X159112578Y-34558171D02*
X159112578Y-33891504D01*
X159112578Y-33891504D02*
X159207816Y-33510552D01*
X159207816Y-33510552D02*
X159398292Y-33320076D01*
X159398292Y-33320076D02*
X159588768Y-33224838D01*
X161112578Y-33224838D02*
X161588768Y-35224838D01*
X161588768Y-35224838D02*
X161969721Y-33796266D01*
X161969721Y-33796266D02*
X162350673Y-35224838D01*
X162350673Y-35224838D02*
X162826864Y-33224838D01*
X133650219Y-41859333D02*
X134364504Y-41859333D01*
X134364504Y-41859333D02*
X134507361Y-41906952D01*
X134507361Y-41906952D02*
X134602600Y-42002190D01*
X134602600Y-42002190D02*
X134650219Y-42145047D01*
X134650219Y-42145047D02*
X134650219Y-42240285D01*
X133650219Y-40906952D02*
X133650219Y-41383142D01*
X133650219Y-41383142D02*
X134126409Y-41430761D01*
X134126409Y-41430761D02*
X134078790Y-41383142D01*
X134078790Y-41383142D02*
X134031171Y-41287904D01*
X134031171Y-41287904D02*
X134031171Y-41049809D01*
X134031171Y-41049809D02*
X134078790Y-40954571D01*
X134078790Y-40954571D02*
X134126409Y-40906952D01*
X134126409Y-40906952D02*
X134221647Y-40859333D01*
X134221647Y-40859333D02*
X134459742Y-40859333D01*
X134459742Y-40859333D02*
X134554980Y-40906952D01*
X134554980Y-40906952D02*
X134602600Y-40954571D01*
X134602600Y-40954571D02*
X134650219Y-41049809D01*
X134650219Y-41049809D02*
X134650219Y-41287904D01*
X134650219Y-41287904D02*
X134602600Y-41383142D01*
X134602600Y-41383142D02*
X134554980Y-41430761D01*
X133650219Y-46258333D02*
X134364504Y-46258333D01*
X134364504Y-46258333D02*
X134507361Y-46305952D01*
X134507361Y-46305952D02*
X134602600Y-46401190D01*
X134602600Y-46401190D02*
X134650219Y-46544047D01*
X134650219Y-46544047D02*
X134650219Y-46639285D01*
X133745457Y-45829761D02*
X133697838Y-45782142D01*
X133697838Y-45782142D02*
X133650219Y-45686904D01*
X133650219Y-45686904D02*
X133650219Y-45448809D01*
X133650219Y-45448809D02*
X133697838Y-45353571D01*
X133697838Y-45353571D02*
X133745457Y-45305952D01*
X133745457Y-45305952D02*
X133840695Y-45258333D01*
X133840695Y-45258333D02*
X133935933Y-45258333D01*
X133935933Y-45258333D02*
X134078790Y-45305952D01*
X134078790Y-45305952D02*
X134650219Y-45877380D01*
X134650219Y-45877380D02*
X134650219Y-45258333D01*
X147399219Y-52620047D02*
X148208742Y-52620047D01*
X148208742Y-52620047D02*
X148303980Y-52572428D01*
X148303980Y-52572428D02*
X148351600Y-52524809D01*
X148351600Y-52524809D02*
X148399219Y-52429571D01*
X148399219Y-52429571D02*
X148399219Y-52239095D01*
X148399219Y-52239095D02*
X148351600Y-52143857D01*
X148351600Y-52143857D02*
X148303980Y-52096238D01*
X148303980Y-52096238D02*
X148208742Y-52048619D01*
X148208742Y-52048619D02*
X147399219Y-52048619D01*
X148399219Y-51048619D02*
X148399219Y-51620047D01*
X148399219Y-51334333D02*
X147399219Y-51334333D01*
X147399219Y-51334333D02*
X147542076Y-51429571D01*
X147542076Y-51429571D02*
X147637314Y-51524809D01*
X147637314Y-51524809D02*
X147684933Y-51620047D01*
X147399219Y-50429571D02*
X147399219Y-50334333D01*
X147399219Y-50334333D02*
X147446838Y-50239095D01*
X147446838Y-50239095D02*
X147494457Y-50191476D01*
X147494457Y-50191476D02*
X147589695Y-50143857D01*
X147589695Y-50143857D02*
X147780171Y-50096238D01*
X147780171Y-50096238D02*
X148018266Y-50096238D01*
X148018266Y-50096238D02*
X148208742Y-50143857D01*
X148208742Y-50143857D02*
X148303980Y-50191476D01*
X148303980Y-50191476D02*
X148351600Y-50239095D01*
X148351600Y-50239095D02*
X148399219Y-50334333D01*
X148399219Y-50334333D02*
X148399219Y-50429571D01*
X148399219Y-50429571D02*
X148351600Y-50524809D01*
X148351600Y-50524809D02*
X148303980Y-50572428D01*
X148303980Y-50572428D02*
X148208742Y-50620047D01*
X148208742Y-50620047D02*
X148018266Y-50667666D01*
X148018266Y-50667666D02*
X147780171Y-50667666D01*
X147780171Y-50667666D02*
X147589695Y-50620047D01*
X147589695Y-50620047D02*
X147494457Y-50572428D01*
X147494457Y-50572428D02*
X147446838Y-50524809D01*
X147446838Y-50524809D02*
X147399219Y-50429571D01*
X147399219Y-49477190D02*
X147399219Y-49381952D01*
X147399219Y-49381952D02*
X147446838Y-49286714D01*
X147446838Y-49286714D02*
X147494457Y-49239095D01*
X147494457Y-49239095D02*
X147589695Y-49191476D01*
X147589695Y-49191476D02*
X147780171Y-49143857D01*
X147780171Y-49143857D02*
X148018266Y-49143857D01*
X148018266Y-49143857D02*
X148208742Y-49191476D01*
X148208742Y-49191476D02*
X148303980Y-49239095D01*
X148303980Y-49239095D02*
X148351600Y-49286714D01*
X148351600Y-49286714D02*
X148399219Y-49381952D01*
X148399219Y-49381952D02*
X148399219Y-49477190D01*
X148399219Y-49477190D02*
X148351600Y-49572428D01*
X148351600Y-49572428D02*
X148303980Y-49620047D01*
X148303980Y-49620047D02*
X148208742Y-49667666D01*
X148208742Y-49667666D02*
X148018266Y-49715285D01*
X148018266Y-49715285D02*
X147780171Y-49715285D01*
X147780171Y-49715285D02*
X147589695Y-49667666D01*
X147589695Y-49667666D02*
X147494457Y-49620047D01*
X147494457Y-49620047D02*
X147446838Y-49572428D01*
X147446838Y-49572428D02*
X147399219Y-49477190D01*
X148113504Y-48762904D02*
X148113504Y-48286714D01*
X148399219Y-48858142D02*
X147399219Y-48524809D01*
X147399219Y-48524809D02*
X148399219Y-48191476D01*
X148399219Y-47334333D02*
X148399219Y-47905761D01*
X148399219Y-47620047D02*
X147399219Y-47620047D01*
X147399219Y-47620047D02*
X147542076Y-47715285D01*
X147542076Y-47715285D02*
X147637314Y-47810523D01*
X147637314Y-47810523D02*
X147684933Y-47905761D01*
X201169952Y-78668219D02*
X201169952Y-79477742D01*
X201169952Y-79477742D02*
X201217571Y-79572980D01*
X201217571Y-79572980D02*
X201265190Y-79620600D01*
X201265190Y-79620600D02*
X201360428Y-79668219D01*
X201360428Y-79668219D02*
X201550904Y-79668219D01*
X201550904Y-79668219D02*
X201646142Y-79620600D01*
X201646142Y-79620600D02*
X201693761Y-79572980D01*
X201693761Y-79572980D02*
X201741380Y-79477742D01*
X201741380Y-79477742D02*
X201741380Y-78668219D01*
X202741380Y-79668219D02*
X202169952Y-79668219D01*
X202455666Y-79668219D02*
X202455666Y-78668219D01*
X202455666Y-78668219D02*
X202360428Y-78811076D01*
X202360428Y-78811076D02*
X202265190Y-78906314D01*
X202265190Y-78906314D02*
X202169952Y-78953933D01*
X203360428Y-78668219D02*
X203455666Y-78668219D01*
X203455666Y-78668219D02*
X203550904Y-78715838D01*
X203550904Y-78715838D02*
X203598523Y-78763457D01*
X203598523Y-78763457D02*
X203646142Y-78858695D01*
X203646142Y-78858695D02*
X203693761Y-79049171D01*
X203693761Y-79049171D02*
X203693761Y-79287266D01*
X203693761Y-79287266D02*
X203646142Y-79477742D01*
X203646142Y-79477742D02*
X203598523Y-79572980D01*
X203598523Y-79572980D02*
X203550904Y-79620600D01*
X203550904Y-79620600D02*
X203455666Y-79668219D01*
X203455666Y-79668219D02*
X203360428Y-79668219D01*
X203360428Y-79668219D02*
X203265190Y-79620600D01*
X203265190Y-79620600D02*
X203217571Y-79572980D01*
X203217571Y-79572980D02*
X203169952Y-79477742D01*
X203169952Y-79477742D02*
X203122333Y-79287266D01*
X203122333Y-79287266D02*
X203122333Y-79049171D01*
X203122333Y-79049171D02*
X203169952Y-78858695D01*
X203169952Y-78858695D02*
X203217571Y-78763457D01*
X203217571Y-78763457D02*
X203265190Y-78715838D01*
X203265190Y-78715838D02*
X203360428Y-78668219D01*
X204027095Y-78668219D02*
X204646142Y-78668219D01*
X204646142Y-78668219D02*
X204312809Y-79049171D01*
X204312809Y-79049171D02*
X204455666Y-79049171D01*
X204455666Y-79049171D02*
X204550904Y-79096790D01*
X204550904Y-79096790D02*
X204598523Y-79144409D01*
X204598523Y-79144409D02*
X204646142Y-79239647D01*
X204646142Y-79239647D02*
X204646142Y-79477742D01*
X204646142Y-79477742D02*
X204598523Y-79572980D01*
X204598523Y-79572980D02*
X204550904Y-79620600D01*
X204550904Y-79620600D02*
X204455666Y-79668219D01*
X204455666Y-79668219D02*
X204169952Y-79668219D01*
X204169952Y-79668219D02*
X204074714Y-79620600D01*
X204074714Y-79620600D02*
X204027095Y-79572980D01*
X205027095Y-79382504D02*
X205503285Y-79382504D01*
X204931857Y-79668219D02*
X205265190Y-78668219D01*
X205265190Y-78668219D02*
X205598523Y-79668219D01*
X206455666Y-79668219D02*
X205884238Y-79668219D01*
X206169952Y-79668219D02*
X206169952Y-78668219D01*
X206169952Y-78668219D02*
X206074714Y-78811076D01*
X206074714Y-78811076D02*
X205979476Y-78906314D01*
X205979476Y-78906314D02*
X205884238Y-78953933D01*
X155302333Y-124759980D02*
X155254714Y-124807600D01*
X155254714Y-124807600D02*
X155111857Y-124855219D01*
X155111857Y-124855219D02*
X155016619Y-124855219D01*
X155016619Y-124855219D02*
X154873762Y-124807600D01*
X154873762Y-124807600D02*
X154778524Y-124712361D01*
X154778524Y-124712361D02*
X154730905Y-124617123D01*
X154730905Y-124617123D02*
X154683286Y-124426647D01*
X154683286Y-124426647D02*
X154683286Y-124283790D01*
X154683286Y-124283790D02*
X154730905Y-124093314D01*
X154730905Y-124093314D02*
X154778524Y-123998076D01*
X154778524Y-123998076D02*
X154873762Y-123902838D01*
X154873762Y-123902838D02*
X155016619Y-123855219D01*
X155016619Y-123855219D02*
X155111857Y-123855219D01*
X155111857Y-123855219D02*
X155254714Y-123902838D01*
X155254714Y-123902838D02*
X155302333Y-123950457D01*
X156159476Y-123855219D02*
X155969000Y-123855219D01*
X155969000Y-123855219D02*
X155873762Y-123902838D01*
X155873762Y-123902838D02*
X155826143Y-123950457D01*
X155826143Y-123950457D02*
X155730905Y-124093314D01*
X155730905Y-124093314D02*
X155683286Y-124283790D01*
X155683286Y-124283790D02*
X155683286Y-124664742D01*
X155683286Y-124664742D02*
X155730905Y-124759980D01*
X155730905Y-124759980D02*
X155778524Y-124807600D01*
X155778524Y-124807600D02*
X155873762Y-124855219D01*
X155873762Y-124855219D02*
X156064238Y-124855219D01*
X156064238Y-124855219D02*
X156159476Y-124807600D01*
X156159476Y-124807600D02*
X156207095Y-124759980D01*
X156207095Y-124759980D02*
X156254714Y-124664742D01*
X156254714Y-124664742D02*
X156254714Y-124426647D01*
X156254714Y-124426647D02*
X156207095Y-124331409D01*
X156207095Y-124331409D02*
X156159476Y-124283790D01*
X156159476Y-124283790D02*
X156064238Y-124236171D01*
X156064238Y-124236171D02*
X155873762Y-124236171D01*
X155873762Y-124236171D02*
X155778524Y-124283790D01*
X155778524Y-124283790D02*
X155730905Y-124331409D01*
X155730905Y-124331409D02*
X155683286Y-124426647D01*
X133650219Y-54752333D02*
X134364504Y-54752333D01*
X134364504Y-54752333D02*
X134507361Y-54799952D01*
X134507361Y-54799952D02*
X134602600Y-54895190D01*
X134602600Y-54895190D02*
X134650219Y-55038047D01*
X134650219Y-55038047D02*
X134650219Y-55133285D01*
X133650219Y-53847571D02*
X133650219Y-54038047D01*
X133650219Y-54038047D02*
X133697838Y-54133285D01*
X133697838Y-54133285D02*
X133745457Y-54180904D01*
X133745457Y-54180904D02*
X133888314Y-54276142D01*
X133888314Y-54276142D02*
X134078790Y-54323761D01*
X134078790Y-54323761D02*
X134459742Y-54323761D01*
X134459742Y-54323761D02*
X134554980Y-54276142D01*
X134554980Y-54276142D02*
X134602600Y-54228523D01*
X134602600Y-54228523D02*
X134650219Y-54133285D01*
X134650219Y-54133285D02*
X134650219Y-53942809D01*
X134650219Y-53942809D02*
X134602600Y-53847571D01*
X134602600Y-53847571D02*
X134554980Y-53799952D01*
X134554980Y-53799952D02*
X134459742Y-53752333D01*
X134459742Y-53752333D02*
X134221647Y-53752333D01*
X134221647Y-53752333D02*
X134126409Y-53799952D01*
X134126409Y-53799952D02*
X134078790Y-53847571D01*
X134078790Y-53847571D02*
X134031171Y-53942809D01*
X134031171Y-53942809D02*
X134031171Y-54133285D01*
X134031171Y-54133285D02*
X134078790Y-54228523D01*
X134078790Y-54228523D02*
X134126409Y-54276142D01*
X134126409Y-54276142D02*
X134221647Y-54323761D01*
X181987524Y-123775219D02*
X181987524Y-124584742D01*
X181987524Y-124584742D02*
X182035143Y-124679980D01*
X182035143Y-124679980D02*
X182082762Y-124727600D01*
X182082762Y-124727600D02*
X182178000Y-124775219D01*
X182178000Y-124775219D02*
X182368476Y-124775219D01*
X182368476Y-124775219D02*
X182463714Y-124727600D01*
X182463714Y-124727600D02*
X182511333Y-124679980D01*
X182511333Y-124679980D02*
X182558952Y-124584742D01*
X182558952Y-124584742D02*
X182558952Y-123775219D01*
X183558952Y-124775219D02*
X182987524Y-124775219D01*
X183273238Y-124775219D02*
X183273238Y-123775219D01*
X183273238Y-123775219D02*
X183178000Y-123918076D01*
X183178000Y-123918076D02*
X183082762Y-124013314D01*
X183082762Y-124013314D02*
X182987524Y-124060933D01*
X184178000Y-123775219D02*
X184273238Y-123775219D01*
X184273238Y-123775219D02*
X184368476Y-123822838D01*
X184368476Y-123822838D02*
X184416095Y-123870457D01*
X184416095Y-123870457D02*
X184463714Y-123965695D01*
X184463714Y-123965695D02*
X184511333Y-124156171D01*
X184511333Y-124156171D02*
X184511333Y-124394266D01*
X184511333Y-124394266D02*
X184463714Y-124584742D01*
X184463714Y-124584742D02*
X184416095Y-124679980D01*
X184416095Y-124679980D02*
X184368476Y-124727600D01*
X184368476Y-124727600D02*
X184273238Y-124775219D01*
X184273238Y-124775219D02*
X184178000Y-124775219D01*
X184178000Y-124775219D02*
X184082762Y-124727600D01*
X184082762Y-124727600D02*
X184035143Y-124679980D01*
X184035143Y-124679980D02*
X183987524Y-124584742D01*
X183987524Y-124584742D02*
X183939905Y-124394266D01*
X183939905Y-124394266D02*
X183939905Y-124156171D01*
X183939905Y-124156171D02*
X183987524Y-123965695D01*
X183987524Y-123965695D02*
X184035143Y-123870457D01*
X184035143Y-123870457D02*
X184082762Y-123822838D01*
X184082762Y-123822838D02*
X184178000Y-123775219D01*
X184892286Y-123870457D02*
X184939905Y-123822838D01*
X184939905Y-123822838D02*
X185035143Y-123775219D01*
X185035143Y-123775219D02*
X185273238Y-123775219D01*
X185273238Y-123775219D02*
X185368476Y-123822838D01*
X185368476Y-123822838D02*
X185416095Y-123870457D01*
X185416095Y-123870457D02*
X185463714Y-123965695D01*
X185463714Y-123965695D02*
X185463714Y-124060933D01*
X185463714Y-124060933D02*
X185416095Y-124203790D01*
X185416095Y-124203790D02*
X184844667Y-124775219D01*
X184844667Y-124775219D02*
X185463714Y-124775219D01*
X186225619Y-124251409D02*
X186368476Y-124299028D01*
X186368476Y-124299028D02*
X186416095Y-124346647D01*
X186416095Y-124346647D02*
X186463714Y-124441885D01*
X186463714Y-124441885D02*
X186463714Y-124584742D01*
X186463714Y-124584742D02*
X186416095Y-124679980D01*
X186416095Y-124679980D02*
X186368476Y-124727600D01*
X186368476Y-124727600D02*
X186273238Y-124775219D01*
X186273238Y-124775219D02*
X185892286Y-124775219D01*
X185892286Y-124775219D02*
X185892286Y-123775219D01*
X185892286Y-123775219D02*
X186225619Y-123775219D01*
X186225619Y-123775219D02*
X186320857Y-123822838D01*
X186320857Y-123822838D02*
X186368476Y-123870457D01*
X186368476Y-123870457D02*
X186416095Y-123965695D01*
X186416095Y-123965695D02*
X186416095Y-124060933D01*
X186416095Y-124060933D02*
X186368476Y-124156171D01*
X186368476Y-124156171D02*
X186320857Y-124203790D01*
X186320857Y-124203790D02*
X186225619Y-124251409D01*
X186225619Y-124251409D02*
X185892286Y-124251409D01*
X187416095Y-124775219D02*
X186844667Y-124775219D01*
X187130381Y-124775219D02*
X187130381Y-123775219D01*
X187130381Y-123775219D02*
X187035143Y-123918076D01*
X187035143Y-123918076D02*
X186939905Y-124013314D01*
X186939905Y-124013314D02*
X186844667Y-124060933D01*
X133650219Y-58998333D02*
X134364504Y-58998333D01*
X134364504Y-58998333D02*
X134507361Y-59045952D01*
X134507361Y-59045952D02*
X134602600Y-59141190D01*
X134602600Y-59141190D02*
X134650219Y-59284047D01*
X134650219Y-59284047D02*
X134650219Y-59379285D01*
X133983552Y-58093571D02*
X134650219Y-58093571D01*
X133602600Y-58331666D02*
X134316885Y-58569761D01*
X134316885Y-58569761D02*
X134316885Y-57950714D01*
X201449524Y-123716219D02*
X201449524Y-124525742D01*
X201449524Y-124525742D02*
X201497143Y-124620980D01*
X201497143Y-124620980D02*
X201544762Y-124668600D01*
X201544762Y-124668600D02*
X201640000Y-124716219D01*
X201640000Y-124716219D02*
X201830476Y-124716219D01*
X201830476Y-124716219D02*
X201925714Y-124668600D01*
X201925714Y-124668600D02*
X201973333Y-124620980D01*
X201973333Y-124620980D02*
X202020952Y-124525742D01*
X202020952Y-124525742D02*
X202020952Y-123716219D01*
X203020952Y-124716219D02*
X202449524Y-124716219D01*
X202735238Y-124716219D02*
X202735238Y-123716219D01*
X202735238Y-123716219D02*
X202640000Y-123859076D01*
X202640000Y-123859076D02*
X202544762Y-123954314D01*
X202544762Y-123954314D02*
X202449524Y-124001933D01*
X203640000Y-123716219D02*
X203735238Y-123716219D01*
X203735238Y-123716219D02*
X203830476Y-123763838D01*
X203830476Y-123763838D02*
X203878095Y-123811457D01*
X203878095Y-123811457D02*
X203925714Y-123906695D01*
X203925714Y-123906695D02*
X203973333Y-124097171D01*
X203973333Y-124097171D02*
X203973333Y-124335266D01*
X203973333Y-124335266D02*
X203925714Y-124525742D01*
X203925714Y-124525742D02*
X203878095Y-124620980D01*
X203878095Y-124620980D02*
X203830476Y-124668600D01*
X203830476Y-124668600D02*
X203735238Y-124716219D01*
X203735238Y-124716219D02*
X203640000Y-124716219D01*
X203640000Y-124716219D02*
X203544762Y-124668600D01*
X203544762Y-124668600D02*
X203497143Y-124620980D01*
X203497143Y-124620980D02*
X203449524Y-124525742D01*
X203449524Y-124525742D02*
X203401905Y-124335266D01*
X203401905Y-124335266D02*
X203401905Y-124097171D01*
X203401905Y-124097171D02*
X203449524Y-123906695D01*
X203449524Y-123906695D02*
X203497143Y-123811457D01*
X203497143Y-123811457D02*
X203544762Y-123763838D01*
X203544762Y-123763838D02*
X203640000Y-123716219D01*
X204306667Y-123716219D02*
X204925714Y-123716219D01*
X204925714Y-123716219D02*
X204592381Y-124097171D01*
X204592381Y-124097171D02*
X204735238Y-124097171D01*
X204735238Y-124097171D02*
X204830476Y-124144790D01*
X204830476Y-124144790D02*
X204878095Y-124192409D01*
X204878095Y-124192409D02*
X204925714Y-124287647D01*
X204925714Y-124287647D02*
X204925714Y-124525742D01*
X204925714Y-124525742D02*
X204878095Y-124620980D01*
X204878095Y-124620980D02*
X204830476Y-124668600D01*
X204830476Y-124668600D02*
X204735238Y-124716219D01*
X204735238Y-124716219D02*
X204449524Y-124716219D01*
X204449524Y-124716219D02*
X204354286Y-124668600D01*
X204354286Y-124668600D02*
X204306667Y-124620980D01*
X205687619Y-124192409D02*
X205830476Y-124240028D01*
X205830476Y-124240028D02*
X205878095Y-124287647D01*
X205878095Y-124287647D02*
X205925714Y-124382885D01*
X205925714Y-124382885D02*
X205925714Y-124525742D01*
X205925714Y-124525742D02*
X205878095Y-124620980D01*
X205878095Y-124620980D02*
X205830476Y-124668600D01*
X205830476Y-124668600D02*
X205735238Y-124716219D01*
X205735238Y-124716219D02*
X205354286Y-124716219D01*
X205354286Y-124716219D02*
X205354286Y-123716219D01*
X205354286Y-123716219D02*
X205687619Y-123716219D01*
X205687619Y-123716219D02*
X205782857Y-123763838D01*
X205782857Y-123763838D02*
X205830476Y-123811457D01*
X205830476Y-123811457D02*
X205878095Y-123906695D01*
X205878095Y-123906695D02*
X205878095Y-124001933D01*
X205878095Y-124001933D02*
X205830476Y-124097171D01*
X205830476Y-124097171D02*
X205782857Y-124144790D01*
X205782857Y-124144790D02*
X205687619Y-124192409D01*
X205687619Y-124192409D02*
X205354286Y-124192409D01*
X206878095Y-124716219D02*
X206306667Y-124716219D01*
X206592381Y-124716219D02*
X206592381Y-123716219D01*
X206592381Y-123716219D02*
X206497143Y-123859076D01*
X206497143Y-123859076D02*
X206401905Y-123954314D01*
X206401905Y-123954314D02*
X206306667Y-124001933D01*
X220738524Y-123818219D02*
X220738524Y-124627742D01*
X220738524Y-124627742D02*
X220786143Y-124722980D01*
X220786143Y-124722980D02*
X220833762Y-124770600D01*
X220833762Y-124770600D02*
X220929000Y-124818219D01*
X220929000Y-124818219D02*
X221119476Y-124818219D01*
X221119476Y-124818219D02*
X221214714Y-124770600D01*
X221214714Y-124770600D02*
X221262333Y-124722980D01*
X221262333Y-124722980D02*
X221309952Y-124627742D01*
X221309952Y-124627742D02*
X221309952Y-123818219D01*
X222309952Y-124818219D02*
X221738524Y-124818219D01*
X222024238Y-124818219D02*
X222024238Y-123818219D01*
X222024238Y-123818219D02*
X221929000Y-123961076D01*
X221929000Y-123961076D02*
X221833762Y-124056314D01*
X221833762Y-124056314D02*
X221738524Y-124103933D01*
X222929000Y-123818219D02*
X223024238Y-123818219D01*
X223024238Y-123818219D02*
X223119476Y-123865838D01*
X223119476Y-123865838D02*
X223167095Y-123913457D01*
X223167095Y-123913457D02*
X223214714Y-124008695D01*
X223214714Y-124008695D02*
X223262333Y-124199171D01*
X223262333Y-124199171D02*
X223262333Y-124437266D01*
X223262333Y-124437266D02*
X223214714Y-124627742D01*
X223214714Y-124627742D02*
X223167095Y-124722980D01*
X223167095Y-124722980D02*
X223119476Y-124770600D01*
X223119476Y-124770600D02*
X223024238Y-124818219D01*
X223024238Y-124818219D02*
X222929000Y-124818219D01*
X222929000Y-124818219D02*
X222833762Y-124770600D01*
X222833762Y-124770600D02*
X222786143Y-124722980D01*
X222786143Y-124722980D02*
X222738524Y-124627742D01*
X222738524Y-124627742D02*
X222690905Y-124437266D01*
X222690905Y-124437266D02*
X222690905Y-124199171D01*
X222690905Y-124199171D02*
X222738524Y-124008695D01*
X222738524Y-124008695D02*
X222786143Y-123913457D01*
X222786143Y-123913457D02*
X222833762Y-123865838D01*
X222833762Y-123865838D02*
X222929000Y-123818219D01*
X224119476Y-124151552D02*
X224119476Y-124818219D01*
X223881381Y-123770600D02*
X223643286Y-124484885D01*
X223643286Y-124484885D02*
X224262333Y-124484885D01*
X224976619Y-124294409D02*
X225119476Y-124342028D01*
X225119476Y-124342028D02*
X225167095Y-124389647D01*
X225167095Y-124389647D02*
X225214714Y-124484885D01*
X225214714Y-124484885D02*
X225214714Y-124627742D01*
X225214714Y-124627742D02*
X225167095Y-124722980D01*
X225167095Y-124722980D02*
X225119476Y-124770600D01*
X225119476Y-124770600D02*
X225024238Y-124818219D01*
X225024238Y-124818219D02*
X224643286Y-124818219D01*
X224643286Y-124818219D02*
X224643286Y-123818219D01*
X224643286Y-123818219D02*
X224976619Y-123818219D01*
X224976619Y-123818219D02*
X225071857Y-123865838D01*
X225071857Y-123865838D02*
X225119476Y-123913457D01*
X225119476Y-123913457D02*
X225167095Y-124008695D01*
X225167095Y-124008695D02*
X225167095Y-124103933D01*
X225167095Y-124103933D02*
X225119476Y-124199171D01*
X225119476Y-124199171D02*
X225071857Y-124246790D01*
X225071857Y-124246790D02*
X224976619Y-124294409D01*
X224976619Y-124294409D02*
X224643286Y-124294409D01*
X226167095Y-124818219D02*
X225595667Y-124818219D01*
X225881381Y-124818219D02*
X225881381Y-123818219D01*
X225881381Y-123818219D02*
X225786143Y-123961076D01*
X225786143Y-123961076D02*
X225690905Y-124056314D01*
X225690905Y-124056314D02*
X225595667Y-124103933D01*
X138793666Y-96920219D02*
X138793666Y-97634504D01*
X138793666Y-97634504D02*
X138746047Y-97777361D01*
X138746047Y-97777361D02*
X138650809Y-97872600D01*
X138650809Y-97872600D02*
X138507952Y-97920219D01*
X138507952Y-97920219D02*
X138412714Y-97920219D01*
X139317476Y-97920219D02*
X139507952Y-97920219D01*
X139507952Y-97920219D02*
X139603190Y-97872600D01*
X139603190Y-97872600D02*
X139650809Y-97824980D01*
X139650809Y-97824980D02*
X139746047Y-97682123D01*
X139746047Y-97682123D02*
X139793666Y-97491647D01*
X139793666Y-97491647D02*
X139793666Y-97110695D01*
X139793666Y-97110695D02*
X139746047Y-97015457D01*
X139746047Y-97015457D02*
X139698428Y-96967838D01*
X139698428Y-96967838D02*
X139603190Y-96920219D01*
X139603190Y-96920219D02*
X139412714Y-96920219D01*
X139412714Y-96920219D02*
X139317476Y-96967838D01*
X139317476Y-96967838D02*
X139269857Y-97015457D01*
X139269857Y-97015457D02*
X139222238Y-97110695D01*
X139222238Y-97110695D02*
X139222238Y-97348790D01*
X139222238Y-97348790D02*
X139269857Y-97444028D01*
X139269857Y-97444028D02*
X139317476Y-97491647D01*
X139317476Y-97491647D02*
X139412714Y-97539266D01*
X139412714Y-97539266D02*
X139603190Y-97539266D01*
X139603190Y-97539266D02*
X139698428Y-97491647D01*
X139698428Y-97491647D02*
X139746047Y-97444028D01*
X139746047Y-97444028D02*
X139793666Y-97348790D01*
X214179333Y-124990980D02*
X214131714Y-125038600D01*
X214131714Y-125038600D02*
X213988857Y-125086219D01*
X213988857Y-125086219D02*
X213893619Y-125086219D01*
X213893619Y-125086219D02*
X213750762Y-125038600D01*
X213750762Y-125038600D02*
X213655524Y-124943361D01*
X213655524Y-124943361D02*
X213607905Y-124848123D01*
X213607905Y-124848123D02*
X213560286Y-124657647D01*
X213560286Y-124657647D02*
X213560286Y-124514790D01*
X213560286Y-124514790D02*
X213607905Y-124324314D01*
X213607905Y-124324314D02*
X213655524Y-124229076D01*
X213655524Y-124229076D02*
X213750762Y-124133838D01*
X213750762Y-124133838D02*
X213893619Y-124086219D01*
X213893619Y-124086219D02*
X213988857Y-124086219D01*
X213988857Y-124086219D02*
X214131714Y-124133838D01*
X214131714Y-124133838D02*
X214179333Y-124181457D01*
X214655524Y-125086219D02*
X214846000Y-125086219D01*
X214846000Y-125086219D02*
X214941238Y-125038600D01*
X214941238Y-125038600D02*
X214988857Y-124990980D01*
X214988857Y-124990980D02*
X215084095Y-124848123D01*
X215084095Y-124848123D02*
X215131714Y-124657647D01*
X215131714Y-124657647D02*
X215131714Y-124276695D01*
X215131714Y-124276695D02*
X215084095Y-124181457D01*
X215084095Y-124181457D02*
X215036476Y-124133838D01*
X215036476Y-124133838D02*
X214941238Y-124086219D01*
X214941238Y-124086219D02*
X214750762Y-124086219D01*
X214750762Y-124086219D02*
X214655524Y-124133838D01*
X214655524Y-124133838D02*
X214607905Y-124181457D01*
X214607905Y-124181457D02*
X214560286Y-124276695D01*
X214560286Y-124276695D02*
X214560286Y-124514790D01*
X214560286Y-124514790D02*
X214607905Y-124610028D01*
X214607905Y-124610028D02*
X214655524Y-124657647D01*
X214655524Y-124657647D02*
X214750762Y-124705266D01*
X214750762Y-124705266D02*
X214941238Y-124705266D01*
X214941238Y-124705266D02*
X215036476Y-124657647D01*
X215036476Y-124657647D02*
X215084095Y-124610028D01*
X215084095Y-124610028D02*
X215131714Y-124514790D01*
X250748429Y-36851528D02*
X250748429Y-37922957D01*
X250748429Y-37922957D02*
X250677000Y-38137242D01*
X250677000Y-38137242D02*
X250534143Y-38280100D01*
X250534143Y-38280100D02*
X250319857Y-38351528D01*
X250319857Y-38351528D02*
X250177000Y-38351528D01*
X252105572Y-36851528D02*
X251819857Y-36851528D01*
X251819857Y-36851528D02*
X251677000Y-36922957D01*
X251677000Y-36922957D02*
X251605572Y-36994385D01*
X251605572Y-36994385D02*
X251462714Y-37208671D01*
X251462714Y-37208671D02*
X251391286Y-37494385D01*
X251391286Y-37494385D02*
X251391286Y-38065814D01*
X251391286Y-38065814D02*
X251462714Y-38208671D01*
X251462714Y-38208671D02*
X251534143Y-38280100D01*
X251534143Y-38280100D02*
X251677000Y-38351528D01*
X251677000Y-38351528D02*
X251962714Y-38351528D01*
X251962714Y-38351528D02*
X252105572Y-38280100D01*
X252105572Y-38280100D02*
X252177000Y-38208671D01*
X252177000Y-38208671D02*
X252248429Y-38065814D01*
X252248429Y-38065814D02*
X252248429Y-37708671D01*
X252248429Y-37708671D02*
X252177000Y-37565814D01*
X252177000Y-37565814D02*
X252105572Y-37494385D01*
X252105572Y-37494385D02*
X251962714Y-37422957D01*
X251962714Y-37422957D02*
X251677000Y-37422957D01*
X251677000Y-37422957D02*
X251534143Y-37494385D01*
X251534143Y-37494385D02*
X251462714Y-37565814D01*
X251462714Y-37565814D02*
X251391286Y-37708671D01*
X253177000Y-36851528D02*
X253319857Y-36851528D01*
X253319857Y-36851528D02*
X253462714Y-36922957D01*
X253462714Y-36922957D02*
X253534143Y-36994385D01*
X253534143Y-36994385D02*
X253605571Y-37137242D01*
X253605571Y-37137242D02*
X253677000Y-37422957D01*
X253677000Y-37422957D02*
X253677000Y-37780100D01*
X253677000Y-37780100D02*
X253605571Y-38065814D01*
X253605571Y-38065814D02*
X253534143Y-38208671D01*
X253534143Y-38208671D02*
X253462714Y-38280100D01*
X253462714Y-38280100D02*
X253319857Y-38351528D01*
X253319857Y-38351528D02*
X253177000Y-38351528D01*
X253177000Y-38351528D02*
X253034143Y-38280100D01*
X253034143Y-38280100D02*
X252962714Y-38208671D01*
X252962714Y-38208671D02*
X252891285Y-38065814D01*
X252891285Y-38065814D02*
X252819857Y-37780100D01*
X252819857Y-37780100D02*
X252819857Y-37422957D01*
X252819857Y-37422957D02*
X252891285Y-37137242D01*
X252891285Y-37137242D02*
X252962714Y-36994385D01*
X252962714Y-36994385D02*
X253034143Y-36922957D01*
X253034143Y-36922957D02*
X253177000Y-36851528D01*
X254605571Y-36851528D02*
X254748428Y-36851528D01*
X254748428Y-36851528D02*
X254891285Y-36922957D01*
X254891285Y-36922957D02*
X254962714Y-36994385D01*
X254962714Y-36994385D02*
X255034142Y-37137242D01*
X255034142Y-37137242D02*
X255105571Y-37422957D01*
X255105571Y-37422957D02*
X255105571Y-37780100D01*
X255105571Y-37780100D02*
X255034142Y-38065814D01*
X255034142Y-38065814D02*
X254962714Y-38208671D01*
X254962714Y-38208671D02*
X254891285Y-38280100D01*
X254891285Y-38280100D02*
X254748428Y-38351528D01*
X254748428Y-38351528D02*
X254605571Y-38351528D01*
X254605571Y-38351528D02*
X254462714Y-38280100D01*
X254462714Y-38280100D02*
X254391285Y-38208671D01*
X254391285Y-38208671D02*
X254319856Y-38065814D01*
X254319856Y-38065814D02*
X254248428Y-37780100D01*
X254248428Y-37780100D02*
X254248428Y-37422957D01*
X254248428Y-37422957D02*
X254319856Y-37137242D01*
X254319856Y-37137242D02*
X254391285Y-36994385D01*
X254391285Y-36994385D02*
X254462714Y-36922957D01*
X254462714Y-36922957D02*
X254605571Y-36851528D01*
X145193219Y-36247333D02*
X145907504Y-36247333D01*
X145907504Y-36247333D02*
X146050361Y-36294952D01*
X146050361Y-36294952D02*
X146145600Y-36390190D01*
X146145600Y-36390190D02*
X146193219Y-36533047D01*
X146193219Y-36533047D02*
X146193219Y-36628285D01*
X145193219Y-35866380D02*
X145193219Y-35199714D01*
X145193219Y-35199714D02*
X146193219Y-35628285D01*
X162533952Y-78394219D02*
X162533952Y-79203742D01*
X162533952Y-79203742D02*
X162581571Y-79298980D01*
X162581571Y-79298980D02*
X162629190Y-79346600D01*
X162629190Y-79346600D02*
X162724428Y-79394219D01*
X162724428Y-79394219D02*
X162914904Y-79394219D01*
X162914904Y-79394219D02*
X163010142Y-79346600D01*
X163010142Y-79346600D02*
X163057761Y-79298980D01*
X163057761Y-79298980D02*
X163105380Y-79203742D01*
X163105380Y-79203742D02*
X163105380Y-78394219D01*
X164105380Y-79394219D02*
X163533952Y-79394219D01*
X163819666Y-79394219D02*
X163819666Y-78394219D01*
X163819666Y-78394219D02*
X163724428Y-78537076D01*
X163724428Y-78537076D02*
X163629190Y-78632314D01*
X163629190Y-78632314D02*
X163533952Y-78679933D01*
X164724428Y-78394219D02*
X164819666Y-78394219D01*
X164819666Y-78394219D02*
X164914904Y-78441838D01*
X164914904Y-78441838D02*
X164962523Y-78489457D01*
X164962523Y-78489457D02*
X165010142Y-78584695D01*
X165010142Y-78584695D02*
X165057761Y-78775171D01*
X165057761Y-78775171D02*
X165057761Y-79013266D01*
X165057761Y-79013266D02*
X165010142Y-79203742D01*
X165010142Y-79203742D02*
X164962523Y-79298980D01*
X164962523Y-79298980D02*
X164914904Y-79346600D01*
X164914904Y-79346600D02*
X164819666Y-79394219D01*
X164819666Y-79394219D02*
X164724428Y-79394219D01*
X164724428Y-79394219D02*
X164629190Y-79346600D01*
X164629190Y-79346600D02*
X164581571Y-79298980D01*
X164581571Y-79298980D02*
X164533952Y-79203742D01*
X164533952Y-79203742D02*
X164486333Y-79013266D01*
X164486333Y-79013266D02*
X164486333Y-78775171D01*
X164486333Y-78775171D02*
X164533952Y-78584695D01*
X164533952Y-78584695D02*
X164581571Y-78489457D01*
X164581571Y-78489457D02*
X164629190Y-78441838D01*
X164629190Y-78441838D02*
X164724428Y-78394219D01*
X166010142Y-79394219D02*
X165438714Y-79394219D01*
X165724428Y-79394219D02*
X165724428Y-78394219D01*
X165724428Y-78394219D02*
X165629190Y-78537076D01*
X165629190Y-78537076D02*
X165533952Y-78632314D01*
X165533952Y-78632314D02*
X165438714Y-78679933D01*
X166391095Y-79108504D02*
X166867285Y-79108504D01*
X166295857Y-79394219D02*
X166629190Y-78394219D01*
X166629190Y-78394219D02*
X166962523Y-79394219D01*
X167819666Y-79394219D02*
X167248238Y-79394219D01*
X167533952Y-79394219D02*
X167533952Y-78394219D01*
X167533952Y-78394219D02*
X167438714Y-78537076D01*
X167438714Y-78537076D02*
X167343476Y-78632314D01*
X167343476Y-78632314D02*
X167248238Y-78679933D01*
D14*
X124288095Y-119504819D02*
X124288095Y-118504819D01*
X124288095Y-118981009D02*
X124859523Y-118981009D01*
X124859523Y-119504819D02*
X124859523Y-118504819D01*
X125288095Y-118600057D02*
X125335714Y-118552438D01*
X125335714Y-118552438D02*
X125430952Y-118504819D01*
X125430952Y-118504819D02*
X125669047Y-118504819D01*
X125669047Y-118504819D02*
X125764285Y-118552438D01*
X125764285Y-118552438D02*
X125811904Y-118600057D01*
X125811904Y-118600057D02*
X125859523Y-118695295D01*
X125859523Y-118695295D02*
X125859523Y-118790533D01*
X125859523Y-118790533D02*
X125811904Y-118933390D01*
X125811904Y-118933390D02*
X125240476Y-119504819D01*
X125240476Y-119504819D02*
X125859523Y-119504819D01*
X211821333Y-79505580D02*
X211773714Y-79553200D01*
X211773714Y-79553200D02*
X211630857Y-79600819D01*
X211630857Y-79600819D02*
X211535619Y-79600819D01*
X211535619Y-79600819D02*
X211392762Y-79553200D01*
X211392762Y-79553200D02*
X211297524Y-79457961D01*
X211297524Y-79457961D02*
X211249905Y-79362723D01*
X211249905Y-79362723D02*
X211202286Y-79172247D01*
X211202286Y-79172247D02*
X211202286Y-79029390D01*
X211202286Y-79029390D02*
X211249905Y-78838914D01*
X211249905Y-78838914D02*
X211297524Y-78743676D01*
X211297524Y-78743676D02*
X211392762Y-78648438D01*
X211392762Y-78648438D02*
X211535619Y-78600819D01*
X211535619Y-78600819D02*
X211630857Y-78600819D01*
X211630857Y-78600819D02*
X211773714Y-78648438D01*
X211773714Y-78648438D02*
X211821333Y-78696057D01*
X212678476Y-78934152D02*
X212678476Y-79600819D01*
X212440381Y-78553200D02*
X212202286Y-79267485D01*
X212202286Y-79267485D02*
X212821333Y-79267485D01*
D12*
X144612666Y-96749219D02*
X144612666Y-97463504D01*
X144612666Y-97463504D02*
X144565047Y-97606361D01*
X144565047Y-97606361D02*
X144469809Y-97701600D01*
X144469809Y-97701600D02*
X144326952Y-97749219D01*
X144326952Y-97749219D02*
X144231714Y-97749219D01*
X145231714Y-97177790D02*
X145136476Y-97130171D01*
X145136476Y-97130171D02*
X145088857Y-97082552D01*
X145088857Y-97082552D02*
X145041238Y-96987314D01*
X145041238Y-96987314D02*
X145041238Y-96939695D01*
X145041238Y-96939695D02*
X145088857Y-96844457D01*
X145088857Y-96844457D02*
X145136476Y-96796838D01*
X145136476Y-96796838D02*
X145231714Y-96749219D01*
X145231714Y-96749219D02*
X145422190Y-96749219D01*
X145422190Y-96749219D02*
X145517428Y-96796838D01*
X145517428Y-96796838D02*
X145565047Y-96844457D01*
X145565047Y-96844457D02*
X145612666Y-96939695D01*
X145612666Y-96939695D02*
X145612666Y-96987314D01*
X145612666Y-96987314D02*
X145565047Y-97082552D01*
X145565047Y-97082552D02*
X145517428Y-97130171D01*
X145517428Y-97130171D02*
X145422190Y-97177790D01*
X145422190Y-97177790D02*
X145231714Y-97177790D01*
X145231714Y-97177790D02*
X145136476Y-97225409D01*
X145136476Y-97225409D02*
X145088857Y-97273028D01*
X145088857Y-97273028D02*
X145041238Y-97368266D01*
X145041238Y-97368266D02*
X145041238Y-97558742D01*
X145041238Y-97558742D02*
X145088857Y-97653980D01*
X145088857Y-97653980D02*
X145136476Y-97701600D01*
X145136476Y-97701600D02*
X145231714Y-97749219D01*
X145231714Y-97749219D02*
X145422190Y-97749219D01*
X145422190Y-97749219D02*
X145517428Y-97701600D01*
X145517428Y-97701600D02*
X145565047Y-97653980D01*
X145565047Y-97653980D02*
X145612666Y-97558742D01*
X145612666Y-97558742D02*
X145612666Y-97368266D01*
X145612666Y-97368266D02*
X145565047Y-97273028D01*
X145565047Y-97273028D02*
X145517428Y-97225409D01*
X145517428Y-97225409D02*
X145422190Y-97177790D01*
X174425833Y-124549980D02*
X174378214Y-124597600D01*
X174378214Y-124597600D02*
X174235357Y-124645219D01*
X174235357Y-124645219D02*
X174140119Y-124645219D01*
X174140119Y-124645219D02*
X173997262Y-124597600D01*
X173997262Y-124597600D02*
X173902024Y-124502361D01*
X173902024Y-124502361D02*
X173854405Y-124407123D01*
X173854405Y-124407123D02*
X173806786Y-124216647D01*
X173806786Y-124216647D02*
X173806786Y-124073790D01*
X173806786Y-124073790D02*
X173854405Y-123883314D01*
X173854405Y-123883314D02*
X173902024Y-123788076D01*
X173902024Y-123788076D02*
X173997262Y-123692838D01*
X173997262Y-123692838D02*
X174140119Y-123645219D01*
X174140119Y-123645219D02*
X174235357Y-123645219D01*
X174235357Y-123645219D02*
X174378214Y-123692838D01*
X174378214Y-123692838D02*
X174425833Y-123740457D01*
X174759167Y-123645219D02*
X175425833Y-123645219D01*
X175425833Y-123645219D02*
X174997262Y-124645219D01*
X233721952Y-78216219D02*
X233721952Y-79025742D01*
X233721952Y-79025742D02*
X233769571Y-79120980D01*
X233769571Y-79120980D02*
X233817190Y-79168600D01*
X233817190Y-79168600D02*
X233912428Y-79216219D01*
X233912428Y-79216219D02*
X234102904Y-79216219D01*
X234102904Y-79216219D02*
X234198142Y-79168600D01*
X234198142Y-79168600D02*
X234245761Y-79120980D01*
X234245761Y-79120980D02*
X234293380Y-79025742D01*
X234293380Y-79025742D02*
X234293380Y-78216219D01*
X235293380Y-79216219D02*
X234721952Y-79216219D01*
X235007666Y-79216219D02*
X235007666Y-78216219D01*
X235007666Y-78216219D02*
X234912428Y-78359076D01*
X234912428Y-78359076D02*
X234817190Y-78454314D01*
X234817190Y-78454314D02*
X234721952Y-78501933D01*
X235912428Y-78216219D02*
X236007666Y-78216219D01*
X236007666Y-78216219D02*
X236102904Y-78263838D01*
X236102904Y-78263838D02*
X236150523Y-78311457D01*
X236150523Y-78311457D02*
X236198142Y-78406695D01*
X236198142Y-78406695D02*
X236245761Y-78597171D01*
X236245761Y-78597171D02*
X236245761Y-78835266D01*
X236245761Y-78835266D02*
X236198142Y-79025742D01*
X236198142Y-79025742D02*
X236150523Y-79120980D01*
X236150523Y-79120980D02*
X236102904Y-79168600D01*
X236102904Y-79168600D02*
X236007666Y-79216219D01*
X236007666Y-79216219D02*
X235912428Y-79216219D01*
X235912428Y-79216219D02*
X235817190Y-79168600D01*
X235817190Y-79168600D02*
X235769571Y-79120980D01*
X235769571Y-79120980D02*
X235721952Y-79025742D01*
X235721952Y-79025742D02*
X235674333Y-78835266D01*
X235674333Y-78835266D02*
X235674333Y-78597171D01*
X235674333Y-78597171D02*
X235721952Y-78406695D01*
X235721952Y-78406695D02*
X235769571Y-78311457D01*
X235769571Y-78311457D02*
X235817190Y-78263838D01*
X235817190Y-78263838D02*
X235912428Y-78216219D01*
X237150523Y-78216219D02*
X236674333Y-78216219D01*
X236674333Y-78216219D02*
X236626714Y-78692409D01*
X236626714Y-78692409D02*
X236674333Y-78644790D01*
X236674333Y-78644790D02*
X236769571Y-78597171D01*
X236769571Y-78597171D02*
X237007666Y-78597171D01*
X237007666Y-78597171D02*
X237102904Y-78644790D01*
X237102904Y-78644790D02*
X237150523Y-78692409D01*
X237150523Y-78692409D02*
X237198142Y-78787647D01*
X237198142Y-78787647D02*
X237198142Y-79025742D01*
X237198142Y-79025742D02*
X237150523Y-79120980D01*
X237150523Y-79120980D02*
X237102904Y-79168600D01*
X237102904Y-79168600D02*
X237007666Y-79216219D01*
X237007666Y-79216219D02*
X236769571Y-79216219D01*
X236769571Y-79216219D02*
X236674333Y-79168600D01*
X236674333Y-79168600D02*
X236626714Y-79120980D01*
X237579095Y-78930504D02*
X238055285Y-78930504D01*
X237483857Y-79216219D02*
X237817190Y-78216219D01*
X237817190Y-78216219D02*
X238150523Y-79216219D01*
X239007666Y-79216219D02*
X238436238Y-79216219D01*
X238721952Y-79216219D02*
X238721952Y-78216219D01*
X238721952Y-78216219D02*
X238626714Y-78359076D01*
X238626714Y-78359076D02*
X238531476Y-78454314D01*
X238531476Y-78454314D02*
X238436238Y-78501933D01*
X125488476Y-97056219D02*
X125488476Y-97770504D01*
X125488476Y-97770504D02*
X125440857Y-97913361D01*
X125440857Y-97913361D02*
X125345619Y-98008600D01*
X125345619Y-98008600D02*
X125202762Y-98056219D01*
X125202762Y-98056219D02*
X125107524Y-98056219D01*
X126488476Y-98056219D02*
X125917048Y-98056219D01*
X126202762Y-98056219D02*
X126202762Y-97056219D01*
X126202762Y-97056219D02*
X126107524Y-97199076D01*
X126107524Y-97199076D02*
X126012286Y-97294314D01*
X126012286Y-97294314D02*
X125917048Y-97341933D01*
X127440857Y-98056219D02*
X126869429Y-98056219D01*
X127155143Y-98056219D02*
X127155143Y-97056219D01*
X127155143Y-97056219D02*
X127059905Y-97199076D01*
X127059905Y-97199076D02*
X126964667Y-97294314D01*
X126964667Y-97294314D02*
X126869429Y-97341933D01*
D14*
X129041095Y-33544819D02*
X129041095Y-32544819D01*
X129041095Y-33021009D02*
X129612523Y-33021009D01*
X129612523Y-33544819D02*
X129612523Y-32544819D01*
X130612523Y-33544819D02*
X130041095Y-33544819D01*
X130326809Y-33544819D02*
X130326809Y-32544819D01*
X130326809Y-32544819D02*
X130231571Y-32687676D01*
X130231571Y-32687676D02*
X130136333Y-32782914D01*
X130136333Y-32782914D02*
X130041095Y-32830533D01*
D12*
X147328219Y-69253523D02*
X148042504Y-69253523D01*
X148042504Y-69253523D02*
X148185361Y-69301142D01*
X148185361Y-69301142D02*
X148280600Y-69396380D01*
X148280600Y-69396380D02*
X148328219Y-69539237D01*
X148328219Y-69539237D02*
X148328219Y-69634475D01*
X147423457Y-68824951D02*
X147375838Y-68777332D01*
X147375838Y-68777332D02*
X147328219Y-68682094D01*
X147328219Y-68682094D02*
X147328219Y-68443999D01*
X147328219Y-68443999D02*
X147375838Y-68348761D01*
X147375838Y-68348761D02*
X147423457Y-68301142D01*
X147423457Y-68301142D02*
X147518695Y-68253523D01*
X147518695Y-68253523D02*
X147613933Y-68253523D01*
X147613933Y-68253523D02*
X147756790Y-68301142D01*
X147756790Y-68301142D02*
X148328219Y-68872570D01*
X148328219Y-68872570D02*
X148328219Y-68253523D01*
X148328219Y-67777332D02*
X148328219Y-67586856D01*
X148328219Y-67586856D02*
X148280600Y-67491618D01*
X148280600Y-67491618D02*
X148232980Y-67443999D01*
X148232980Y-67443999D02*
X148090123Y-67348761D01*
X148090123Y-67348761D02*
X147899647Y-67301142D01*
X147899647Y-67301142D02*
X147518695Y-67301142D01*
X147518695Y-67301142D02*
X147423457Y-67348761D01*
X147423457Y-67348761D02*
X147375838Y-67396380D01*
X147375838Y-67396380D02*
X147328219Y-67491618D01*
X147328219Y-67491618D02*
X147328219Y-67682094D01*
X147328219Y-67682094D02*
X147375838Y-67777332D01*
X147375838Y-67777332D02*
X147423457Y-67824951D01*
X147423457Y-67824951D02*
X147518695Y-67872570D01*
X147518695Y-67872570D02*
X147756790Y-67872570D01*
X147756790Y-67872570D02*
X147852028Y-67824951D01*
X147852028Y-67824951D02*
X147899647Y-67777332D01*
X147899647Y-67777332D02*
X147947266Y-67682094D01*
X147947266Y-67682094D02*
X147947266Y-67491618D01*
X147947266Y-67491618D02*
X147899647Y-67396380D01*
X147899647Y-67396380D02*
X147852028Y-67348761D01*
X147852028Y-67348761D02*
X147756790Y-67301142D01*
D14*
X230867580Y-80130666D02*
X230915200Y-80178285D01*
X230915200Y-80178285D02*
X230962819Y-80321142D01*
X230962819Y-80321142D02*
X230962819Y-80416380D01*
X230962819Y-80416380D02*
X230915200Y-80559237D01*
X230915200Y-80559237D02*
X230819961Y-80654475D01*
X230819961Y-80654475D02*
X230724723Y-80702094D01*
X230724723Y-80702094D02*
X230534247Y-80749713D01*
X230534247Y-80749713D02*
X230391390Y-80749713D01*
X230391390Y-80749713D02*
X230200914Y-80702094D01*
X230200914Y-80702094D02*
X230105676Y-80654475D01*
X230105676Y-80654475D02*
X230010438Y-80559237D01*
X230010438Y-80559237D02*
X229962819Y-80416380D01*
X229962819Y-80416380D02*
X229962819Y-80321142D01*
X229962819Y-80321142D02*
X230010438Y-80178285D01*
X230010438Y-80178285D02*
X230058057Y-80130666D01*
X229962819Y-79225904D02*
X229962819Y-79702094D01*
X229962819Y-79702094D02*
X230439009Y-79749713D01*
X230439009Y-79749713D02*
X230391390Y-79702094D01*
X230391390Y-79702094D02*
X230343771Y-79606856D01*
X230343771Y-79606856D02*
X230343771Y-79368761D01*
X230343771Y-79368761D02*
X230391390Y-79273523D01*
X230391390Y-79273523D02*
X230439009Y-79225904D01*
X230439009Y-79225904D02*
X230534247Y-79178285D01*
X230534247Y-79178285D02*
X230772342Y-79178285D01*
X230772342Y-79178285D02*
X230867580Y-79225904D01*
X230867580Y-79225904D02*
X230915200Y-79273523D01*
X230915200Y-79273523D02*
X230962819Y-79368761D01*
X230962819Y-79368761D02*
X230962819Y-79606856D01*
X230962819Y-79606856D02*
X230915200Y-79702094D01*
X230915200Y-79702094D02*
X230867580Y-79749713D01*
D12*
X147328219Y-78433523D02*
X148042504Y-78433523D01*
X148042504Y-78433523D02*
X148185361Y-78481142D01*
X148185361Y-78481142D02*
X148280600Y-78576380D01*
X148280600Y-78576380D02*
X148328219Y-78719237D01*
X148328219Y-78719237D02*
X148328219Y-78814475D01*
X147328219Y-78052570D02*
X147328219Y-77433523D01*
X147328219Y-77433523D02*
X147709171Y-77766856D01*
X147709171Y-77766856D02*
X147709171Y-77623999D01*
X147709171Y-77623999D02*
X147756790Y-77528761D01*
X147756790Y-77528761D02*
X147804409Y-77481142D01*
X147804409Y-77481142D02*
X147899647Y-77433523D01*
X147899647Y-77433523D02*
X148137742Y-77433523D01*
X148137742Y-77433523D02*
X148232980Y-77481142D01*
X148232980Y-77481142D02*
X148280600Y-77528761D01*
X148280600Y-77528761D02*
X148328219Y-77623999D01*
X148328219Y-77623999D02*
X148328219Y-77909713D01*
X148328219Y-77909713D02*
X148280600Y-78004951D01*
X148280600Y-78004951D02*
X148232980Y-78052570D01*
X148328219Y-76481142D02*
X148328219Y-77052570D01*
X148328219Y-76766856D02*
X147328219Y-76766856D01*
X147328219Y-76766856D02*
X147471076Y-76862094D01*
X147471076Y-76862094D02*
X147566314Y-76957332D01*
X147566314Y-76957332D02*
X147613933Y-77052570D01*
X240027524Y-123818219D02*
X240027524Y-124627742D01*
X240027524Y-124627742D02*
X240075143Y-124722980D01*
X240075143Y-124722980D02*
X240122762Y-124770600D01*
X240122762Y-124770600D02*
X240218000Y-124818219D01*
X240218000Y-124818219D02*
X240408476Y-124818219D01*
X240408476Y-124818219D02*
X240503714Y-124770600D01*
X240503714Y-124770600D02*
X240551333Y-124722980D01*
X240551333Y-124722980D02*
X240598952Y-124627742D01*
X240598952Y-124627742D02*
X240598952Y-123818219D01*
X241598952Y-124818219D02*
X241027524Y-124818219D01*
X241313238Y-124818219D02*
X241313238Y-123818219D01*
X241313238Y-123818219D02*
X241218000Y-123961076D01*
X241218000Y-123961076D02*
X241122762Y-124056314D01*
X241122762Y-124056314D02*
X241027524Y-124103933D01*
X242218000Y-123818219D02*
X242313238Y-123818219D01*
X242313238Y-123818219D02*
X242408476Y-123865838D01*
X242408476Y-123865838D02*
X242456095Y-123913457D01*
X242456095Y-123913457D02*
X242503714Y-124008695D01*
X242503714Y-124008695D02*
X242551333Y-124199171D01*
X242551333Y-124199171D02*
X242551333Y-124437266D01*
X242551333Y-124437266D02*
X242503714Y-124627742D01*
X242503714Y-124627742D02*
X242456095Y-124722980D01*
X242456095Y-124722980D02*
X242408476Y-124770600D01*
X242408476Y-124770600D02*
X242313238Y-124818219D01*
X242313238Y-124818219D02*
X242218000Y-124818219D01*
X242218000Y-124818219D02*
X242122762Y-124770600D01*
X242122762Y-124770600D02*
X242075143Y-124722980D01*
X242075143Y-124722980D02*
X242027524Y-124627742D01*
X242027524Y-124627742D02*
X241979905Y-124437266D01*
X241979905Y-124437266D02*
X241979905Y-124199171D01*
X241979905Y-124199171D02*
X242027524Y-124008695D01*
X242027524Y-124008695D02*
X242075143Y-123913457D01*
X242075143Y-123913457D02*
X242122762Y-123865838D01*
X242122762Y-123865838D02*
X242218000Y-123818219D01*
X243456095Y-123818219D02*
X242979905Y-123818219D01*
X242979905Y-123818219D02*
X242932286Y-124294409D01*
X242932286Y-124294409D02*
X242979905Y-124246790D01*
X242979905Y-124246790D02*
X243075143Y-124199171D01*
X243075143Y-124199171D02*
X243313238Y-124199171D01*
X243313238Y-124199171D02*
X243408476Y-124246790D01*
X243408476Y-124246790D02*
X243456095Y-124294409D01*
X243456095Y-124294409D02*
X243503714Y-124389647D01*
X243503714Y-124389647D02*
X243503714Y-124627742D01*
X243503714Y-124627742D02*
X243456095Y-124722980D01*
X243456095Y-124722980D02*
X243408476Y-124770600D01*
X243408476Y-124770600D02*
X243313238Y-124818219D01*
X243313238Y-124818219D02*
X243075143Y-124818219D01*
X243075143Y-124818219D02*
X242979905Y-124770600D01*
X242979905Y-124770600D02*
X242932286Y-124722980D01*
X244265619Y-124294409D02*
X244408476Y-124342028D01*
X244408476Y-124342028D02*
X244456095Y-124389647D01*
X244456095Y-124389647D02*
X244503714Y-124484885D01*
X244503714Y-124484885D02*
X244503714Y-124627742D01*
X244503714Y-124627742D02*
X244456095Y-124722980D01*
X244456095Y-124722980D02*
X244408476Y-124770600D01*
X244408476Y-124770600D02*
X244313238Y-124818219D01*
X244313238Y-124818219D02*
X243932286Y-124818219D01*
X243932286Y-124818219D02*
X243932286Y-123818219D01*
X243932286Y-123818219D02*
X244265619Y-123818219D01*
X244265619Y-123818219D02*
X244360857Y-123865838D01*
X244360857Y-123865838D02*
X244408476Y-123913457D01*
X244408476Y-123913457D02*
X244456095Y-124008695D01*
X244456095Y-124008695D02*
X244456095Y-124103933D01*
X244456095Y-124103933D02*
X244408476Y-124199171D01*
X244408476Y-124199171D02*
X244360857Y-124246790D01*
X244360857Y-124246790D02*
X244265619Y-124294409D01*
X244265619Y-124294409D02*
X243932286Y-124294409D01*
X245456095Y-124818219D02*
X244884667Y-124818219D01*
X245170381Y-124818219D02*
X245170381Y-123818219D01*
X245170381Y-123818219D02*
X245075143Y-123961076D01*
X245075143Y-123961076D02*
X244979905Y-124056314D01*
X244979905Y-124056314D02*
X244884667Y-124103933D01*
D14*
X153940333Y-79772580D02*
X153892714Y-79820200D01*
X153892714Y-79820200D02*
X153749857Y-79867819D01*
X153749857Y-79867819D02*
X153654619Y-79867819D01*
X153654619Y-79867819D02*
X153511762Y-79820200D01*
X153511762Y-79820200D02*
X153416524Y-79724961D01*
X153416524Y-79724961D02*
X153368905Y-79629723D01*
X153368905Y-79629723D02*
X153321286Y-79439247D01*
X153321286Y-79439247D02*
X153321286Y-79296390D01*
X153321286Y-79296390D02*
X153368905Y-79105914D01*
X153368905Y-79105914D02*
X153416524Y-79010676D01*
X153416524Y-79010676D02*
X153511762Y-78915438D01*
X153511762Y-78915438D02*
X153654619Y-78867819D01*
X153654619Y-78867819D02*
X153749857Y-78867819D01*
X153749857Y-78867819D02*
X153892714Y-78915438D01*
X153892714Y-78915438D02*
X153940333Y-78963057D01*
X154892714Y-79867819D02*
X154321286Y-79867819D01*
X154607000Y-79867819D02*
X154607000Y-78867819D01*
X154607000Y-78867819D02*
X154511762Y-79010676D01*
X154511762Y-79010676D02*
X154416524Y-79105914D01*
X154416524Y-79105914D02*
X154321286Y-79153533D01*
X192458333Y-79515580D02*
X192410714Y-79563200D01*
X192410714Y-79563200D02*
X192267857Y-79610819D01*
X192267857Y-79610819D02*
X192172619Y-79610819D01*
X192172619Y-79610819D02*
X192029762Y-79563200D01*
X192029762Y-79563200D02*
X191934524Y-79467961D01*
X191934524Y-79467961D02*
X191886905Y-79372723D01*
X191886905Y-79372723D02*
X191839286Y-79182247D01*
X191839286Y-79182247D02*
X191839286Y-79039390D01*
X191839286Y-79039390D02*
X191886905Y-78848914D01*
X191886905Y-78848914D02*
X191934524Y-78753676D01*
X191934524Y-78753676D02*
X192029762Y-78658438D01*
X192029762Y-78658438D02*
X192172619Y-78610819D01*
X192172619Y-78610819D02*
X192267857Y-78610819D01*
X192267857Y-78610819D02*
X192410714Y-78658438D01*
X192410714Y-78658438D02*
X192458333Y-78706057D01*
X192791667Y-78610819D02*
X193410714Y-78610819D01*
X193410714Y-78610819D02*
X193077381Y-78991771D01*
X193077381Y-78991771D02*
X193220238Y-78991771D01*
X193220238Y-78991771D02*
X193315476Y-79039390D01*
X193315476Y-79039390D02*
X193363095Y-79087009D01*
X193363095Y-79087009D02*
X193410714Y-79182247D01*
X193410714Y-79182247D02*
X193410714Y-79420342D01*
X193410714Y-79420342D02*
X193363095Y-79515580D01*
X193363095Y-79515580D02*
X193315476Y-79563200D01*
X193315476Y-79563200D02*
X193220238Y-79610819D01*
X193220238Y-79610819D02*
X192934524Y-79610819D01*
X192934524Y-79610819D02*
X192839286Y-79563200D01*
X192839286Y-79563200D02*
X192791667Y-79515580D01*
D12*
X181924952Y-78591219D02*
X181924952Y-79400742D01*
X181924952Y-79400742D02*
X181972571Y-79495980D01*
X181972571Y-79495980D02*
X182020190Y-79543600D01*
X182020190Y-79543600D02*
X182115428Y-79591219D01*
X182115428Y-79591219D02*
X182305904Y-79591219D01*
X182305904Y-79591219D02*
X182401142Y-79543600D01*
X182401142Y-79543600D02*
X182448761Y-79495980D01*
X182448761Y-79495980D02*
X182496380Y-79400742D01*
X182496380Y-79400742D02*
X182496380Y-78591219D01*
X183496380Y-79591219D02*
X182924952Y-79591219D01*
X183210666Y-79591219D02*
X183210666Y-78591219D01*
X183210666Y-78591219D02*
X183115428Y-78734076D01*
X183115428Y-78734076D02*
X183020190Y-78829314D01*
X183020190Y-78829314D02*
X182924952Y-78876933D01*
X184115428Y-78591219D02*
X184210666Y-78591219D01*
X184210666Y-78591219D02*
X184305904Y-78638838D01*
X184305904Y-78638838D02*
X184353523Y-78686457D01*
X184353523Y-78686457D02*
X184401142Y-78781695D01*
X184401142Y-78781695D02*
X184448761Y-78972171D01*
X184448761Y-78972171D02*
X184448761Y-79210266D01*
X184448761Y-79210266D02*
X184401142Y-79400742D01*
X184401142Y-79400742D02*
X184353523Y-79495980D01*
X184353523Y-79495980D02*
X184305904Y-79543600D01*
X184305904Y-79543600D02*
X184210666Y-79591219D01*
X184210666Y-79591219D02*
X184115428Y-79591219D01*
X184115428Y-79591219D02*
X184020190Y-79543600D01*
X184020190Y-79543600D02*
X183972571Y-79495980D01*
X183972571Y-79495980D02*
X183924952Y-79400742D01*
X183924952Y-79400742D02*
X183877333Y-79210266D01*
X183877333Y-79210266D02*
X183877333Y-78972171D01*
X183877333Y-78972171D02*
X183924952Y-78781695D01*
X183924952Y-78781695D02*
X183972571Y-78686457D01*
X183972571Y-78686457D02*
X184020190Y-78638838D01*
X184020190Y-78638838D02*
X184115428Y-78591219D01*
X184829714Y-78686457D02*
X184877333Y-78638838D01*
X184877333Y-78638838D02*
X184972571Y-78591219D01*
X184972571Y-78591219D02*
X185210666Y-78591219D01*
X185210666Y-78591219D02*
X185305904Y-78638838D01*
X185305904Y-78638838D02*
X185353523Y-78686457D01*
X185353523Y-78686457D02*
X185401142Y-78781695D01*
X185401142Y-78781695D02*
X185401142Y-78876933D01*
X185401142Y-78876933D02*
X185353523Y-79019790D01*
X185353523Y-79019790D02*
X184782095Y-79591219D01*
X184782095Y-79591219D02*
X185401142Y-79591219D01*
X185782095Y-79305504D02*
X186258285Y-79305504D01*
X185686857Y-79591219D02*
X186020190Y-78591219D01*
X186020190Y-78591219D02*
X186353523Y-79591219D01*
X187210666Y-79591219D02*
X186639238Y-79591219D01*
X186924952Y-79591219D02*
X186924952Y-78591219D01*
X186924952Y-78591219D02*
X186829714Y-78734076D01*
X186829714Y-78734076D02*
X186734476Y-78829314D01*
X186734476Y-78829314D02*
X186639238Y-78876933D01*
X133650219Y-50505333D02*
X134364504Y-50505333D01*
X134364504Y-50505333D02*
X134507361Y-50552952D01*
X134507361Y-50552952D02*
X134602600Y-50648190D01*
X134602600Y-50648190D02*
X134650219Y-50791047D01*
X134650219Y-50791047D02*
X134650219Y-50886285D01*
X134650219Y-49505333D02*
X134650219Y-50076761D01*
X134650219Y-49791047D02*
X133650219Y-49791047D01*
X133650219Y-49791047D02*
X133793076Y-49886285D01*
X133793076Y-49886285D02*
X133888314Y-49981523D01*
X133888314Y-49981523D02*
X133935933Y-50076761D01*
X193772333Y-124968980D02*
X193724714Y-125016600D01*
X193724714Y-125016600D02*
X193581857Y-125064219D01*
X193581857Y-125064219D02*
X193486619Y-125064219D01*
X193486619Y-125064219D02*
X193343762Y-125016600D01*
X193343762Y-125016600D02*
X193248524Y-124921361D01*
X193248524Y-124921361D02*
X193200905Y-124826123D01*
X193200905Y-124826123D02*
X193153286Y-124635647D01*
X193153286Y-124635647D02*
X193153286Y-124492790D01*
X193153286Y-124492790D02*
X193200905Y-124302314D01*
X193200905Y-124302314D02*
X193248524Y-124207076D01*
X193248524Y-124207076D02*
X193343762Y-124111838D01*
X193343762Y-124111838D02*
X193486619Y-124064219D01*
X193486619Y-124064219D02*
X193581857Y-124064219D01*
X193581857Y-124064219D02*
X193724714Y-124111838D01*
X193724714Y-124111838D02*
X193772333Y-124159457D01*
X194343762Y-124492790D02*
X194248524Y-124445171D01*
X194248524Y-124445171D02*
X194200905Y-124397552D01*
X194200905Y-124397552D02*
X194153286Y-124302314D01*
X194153286Y-124302314D02*
X194153286Y-124254695D01*
X194153286Y-124254695D02*
X194200905Y-124159457D01*
X194200905Y-124159457D02*
X194248524Y-124111838D01*
X194248524Y-124111838D02*
X194343762Y-124064219D01*
X194343762Y-124064219D02*
X194534238Y-124064219D01*
X194534238Y-124064219D02*
X194629476Y-124111838D01*
X194629476Y-124111838D02*
X194677095Y-124159457D01*
X194677095Y-124159457D02*
X194724714Y-124254695D01*
X194724714Y-124254695D02*
X194724714Y-124302314D01*
X194724714Y-124302314D02*
X194677095Y-124397552D01*
X194677095Y-124397552D02*
X194629476Y-124445171D01*
X194629476Y-124445171D02*
X194534238Y-124492790D01*
X194534238Y-124492790D02*
X194343762Y-124492790D01*
X194343762Y-124492790D02*
X194248524Y-124540409D01*
X194248524Y-124540409D02*
X194200905Y-124588028D01*
X194200905Y-124588028D02*
X194153286Y-124683266D01*
X194153286Y-124683266D02*
X194153286Y-124873742D01*
X194153286Y-124873742D02*
X194200905Y-124968980D01*
X194200905Y-124968980D02*
X194248524Y-125016600D01*
X194248524Y-125016600D02*
X194343762Y-125064219D01*
X194343762Y-125064219D02*
X194534238Y-125064219D01*
X194534238Y-125064219D02*
X194629476Y-125016600D01*
X194629476Y-125016600D02*
X194677095Y-124968980D01*
X194677095Y-124968980D02*
X194724714Y-124873742D01*
X194724714Y-124873742D02*
X194724714Y-124683266D01*
X194724714Y-124683266D02*
X194677095Y-124588028D01*
X194677095Y-124588028D02*
X194629476Y-124540409D01*
X194629476Y-124540409D02*
X194534238Y-124492790D01*
X147328219Y-64187333D02*
X148042504Y-64187333D01*
X148042504Y-64187333D02*
X148185361Y-64234952D01*
X148185361Y-64234952D02*
X148280600Y-64330190D01*
X148280600Y-64330190D02*
X148328219Y-64473047D01*
X148328219Y-64473047D02*
X148328219Y-64568285D01*
X147328219Y-63806380D02*
X147328219Y-63187333D01*
X147328219Y-63187333D02*
X147709171Y-63520666D01*
X147709171Y-63520666D02*
X147709171Y-63377809D01*
X147709171Y-63377809D02*
X147756790Y-63282571D01*
X147756790Y-63282571D02*
X147804409Y-63234952D01*
X147804409Y-63234952D02*
X147899647Y-63187333D01*
X147899647Y-63187333D02*
X148137742Y-63187333D01*
X148137742Y-63187333D02*
X148232980Y-63234952D01*
X148232980Y-63234952D02*
X148280600Y-63282571D01*
X148280600Y-63282571D02*
X148328219Y-63377809D01*
X148328219Y-63377809D02*
X148328219Y-63663523D01*
X148328219Y-63663523D02*
X148280600Y-63758761D01*
X148280600Y-63758761D02*
X148232980Y-63806380D01*
X219183952Y-78609219D02*
X219183952Y-79418742D01*
X219183952Y-79418742D02*
X219231571Y-79513980D01*
X219231571Y-79513980D02*
X219279190Y-79561600D01*
X219279190Y-79561600D02*
X219374428Y-79609219D01*
X219374428Y-79609219D02*
X219564904Y-79609219D01*
X219564904Y-79609219D02*
X219660142Y-79561600D01*
X219660142Y-79561600D02*
X219707761Y-79513980D01*
X219707761Y-79513980D02*
X219755380Y-79418742D01*
X219755380Y-79418742D02*
X219755380Y-78609219D01*
X220755380Y-79609219D02*
X220183952Y-79609219D01*
X220469666Y-79609219D02*
X220469666Y-78609219D01*
X220469666Y-78609219D02*
X220374428Y-78752076D01*
X220374428Y-78752076D02*
X220279190Y-78847314D01*
X220279190Y-78847314D02*
X220183952Y-78894933D01*
X221374428Y-78609219D02*
X221469666Y-78609219D01*
X221469666Y-78609219D02*
X221564904Y-78656838D01*
X221564904Y-78656838D02*
X221612523Y-78704457D01*
X221612523Y-78704457D02*
X221660142Y-78799695D01*
X221660142Y-78799695D02*
X221707761Y-78990171D01*
X221707761Y-78990171D02*
X221707761Y-79228266D01*
X221707761Y-79228266D02*
X221660142Y-79418742D01*
X221660142Y-79418742D02*
X221612523Y-79513980D01*
X221612523Y-79513980D02*
X221564904Y-79561600D01*
X221564904Y-79561600D02*
X221469666Y-79609219D01*
X221469666Y-79609219D02*
X221374428Y-79609219D01*
X221374428Y-79609219D02*
X221279190Y-79561600D01*
X221279190Y-79561600D02*
X221231571Y-79513980D01*
X221231571Y-79513980D02*
X221183952Y-79418742D01*
X221183952Y-79418742D02*
X221136333Y-79228266D01*
X221136333Y-79228266D02*
X221136333Y-78990171D01*
X221136333Y-78990171D02*
X221183952Y-78799695D01*
X221183952Y-78799695D02*
X221231571Y-78704457D01*
X221231571Y-78704457D02*
X221279190Y-78656838D01*
X221279190Y-78656838D02*
X221374428Y-78609219D01*
X222564904Y-78942552D02*
X222564904Y-79609219D01*
X222326809Y-78561600D02*
X222088714Y-79275885D01*
X222088714Y-79275885D02*
X222707761Y-79275885D01*
X223041095Y-79323504D02*
X223517285Y-79323504D01*
X222945857Y-79609219D02*
X223279190Y-78609219D01*
X223279190Y-78609219D02*
X223612523Y-79609219D01*
X224469666Y-79609219D02*
X223898238Y-79609219D01*
X224183952Y-79609219D02*
X224183952Y-78609219D01*
X224183952Y-78609219D02*
X224088714Y-78752076D01*
X224088714Y-78752076D02*
X223993476Y-78847314D01*
X223993476Y-78847314D02*
X223898238Y-78894933D01*
X162675524Y-124011219D02*
X162675524Y-124820742D01*
X162675524Y-124820742D02*
X162723143Y-124915980D01*
X162723143Y-124915980D02*
X162770762Y-124963600D01*
X162770762Y-124963600D02*
X162866000Y-125011219D01*
X162866000Y-125011219D02*
X163056476Y-125011219D01*
X163056476Y-125011219D02*
X163151714Y-124963600D01*
X163151714Y-124963600D02*
X163199333Y-124915980D01*
X163199333Y-124915980D02*
X163246952Y-124820742D01*
X163246952Y-124820742D02*
X163246952Y-124011219D01*
X164246952Y-125011219D02*
X163675524Y-125011219D01*
X163961238Y-125011219D02*
X163961238Y-124011219D01*
X163961238Y-124011219D02*
X163866000Y-124154076D01*
X163866000Y-124154076D02*
X163770762Y-124249314D01*
X163770762Y-124249314D02*
X163675524Y-124296933D01*
X164866000Y-124011219D02*
X164961238Y-124011219D01*
X164961238Y-124011219D02*
X165056476Y-124058838D01*
X165056476Y-124058838D02*
X165104095Y-124106457D01*
X165104095Y-124106457D02*
X165151714Y-124201695D01*
X165151714Y-124201695D02*
X165199333Y-124392171D01*
X165199333Y-124392171D02*
X165199333Y-124630266D01*
X165199333Y-124630266D02*
X165151714Y-124820742D01*
X165151714Y-124820742D02*
X165104095Y-124915980D01*
X165104095Y-124915980D02*
X165056476Y-124963600D01*
X165056476Y-124963600D02*
X164961238Y-125011219D01*
X164961238Y-125011219D02*
X164866000Y-125011219D01*
X164866000Y-125011219D02*
X164770762Y-124963600D01*
X164770762Y-124963600D02*
X164723143Y-124915980D01*
X164723143Y-124915980D02*
X164675524Y-124820742D01*
X164675524Y-124820742D02*
X164627905Y-124630266D01*
X164627905Y-124630266D02*
X164627905Y-124392171D01*
X164627905Y-124392171D02*
X164675524Y-124201695D01*
X164675524Y-124201695D02*
X164723143Y-124106457D01*
X164723143Y-124106457D02*
X164770762Y-124058838D01*
X164770762Y-124058838D02*
X164866000Y-124011219D01*
X166151714Y-125011219D02*
X165580286Y-125011219D01*
X165866000Y-125011219D02*
X165866000Y-124011219D01*
X165866000Y-124011219D02*
X165770762Y-124154076D01*
X165770762Y-124154076D02*
X165675524Y-124249314D01*
X165675524Y-124249314D02*
X165580286Y-124296933D01*
X166913619Y-124487409D02*
X167056476Y-124535028D01*
X167056476Y-124535028D02*
X167104095Y-124582647D01*
X167104095Y-124582647D02*
X167151714Y-124677885D01*
X167151714Y-124677885D02*
X167151714Y-124820742D01*
X167151714Y-124820742D02*
X167104095Y-124915980D01*
X167104095Y-124915980D02*
X167056476Y-124963600D01*
X167056476Y-124963600D02*
X166961238Y-125011219D01*
X166961238Y-125011219D02*
X166580286Y-125011219D01*
X166580286Y-125011219D02*
X166580286Y-124011219D01*
X166580286Y-124011219D02*
X166913619Y-124011219D01*
X166913619Y-124011219D02*
X167008857Y-124058838D01*
X167008857Y-124058838D02*
X167056476Y-124106457D01*
X167056476Y-124106457D02*
X167104095Y-124201695D01*
X167104095Y-124201695D02*
X167104095Y-124296933D01*
X167104095Y-124296933D02*
X167056476Y-124392171D01*
X167056476Y-124392171D02*
X167008857Y-124439790D01*
X167008857Y-124439790D02*
X166913619Y-124487409D01*
X166913619Y-124487409D02*
X166580286Y-124487409D01*
X168104095Y-125011219D02*
X167532667Y-125011219D01*
X167818381Y-125011219D02*
X167818381Y-124011219D01*
X167818381Y-124011219D02*
X167723143Y-124154076D01*
X167723143Y-124154076D02*
X167627905Y-124249314D01*
X167627905Y-124249314D02*
X167532667Y-124296933D01*
X121746219Y-72114475D02*
X122555742Y-72114475D01*
X122555742Y-72114475D02*
X122650980Y-72066856D01*
X122650980Y-72066856D02*
X122698600Y-72019237D01*
X122698600Y-72019237D02*
X122746219Y-71923999D01*
X122746219Y-71923999D02*
X122746219Y-71733523D01*
X122746219Y-71733523D02*
X122698600Y-71638285D01*
X122698600Y-71638285D02*
X122650980Y-71590666D01*
X122650980Y-71590666D02*
X122555742Y-71543047D01*
X122555742Y-71543047D02*
X121746219Y-71543047D01*
X122746219Y-70543047D02*
X122746219Y-71114475D01*
X122746219Y-70828761D02*
X121746219Y-70828761D01*
X121746219Y-70828761D02*
X121889076Y-70923999D01*
X121889076Y-70923999D02*
X121984314Y-71019237D01*
X121984314Y-71019237D02*
X122031933Y-71114475D01*
X121746219Y-69923999D02*
X121746219Y-69828761D01*
X121746219Y-69828761D02*
X121793838Y-69733523D01*
X121793838Y-69733523D02*
X121841457Y-69685904D01*
X121841457Y-69685904D02*
X121936695Y-69638285D01*
X121936695Y-69638285D02*
X122127171Y-69590666D01*
X122127171Y-69590666D02*
X122365266Y-69590666D01*
X122365266Y-69590666D02*
X122555742Y-69638285D01*
X122555742Y-69638285D02*
X122650980Y-69685904D01*
X122650980Y-69685904D02*
X122698600Y-69733523D01*
X122698600Y-69733523D02*
X122746219Y-69828761D01*
X122746219Y-69828761D02*
X122746219Y-69923999D01*
X122746219Y-69923999D02*
X122698600Y-70019237D01*
X122698600Y-70019237D02*
X122650980Y-70066856D01*
X122650980Y-70066856D02*
X122555742Y-70114475D01*
X122555742Y-70114475D02*
X122365266Y-70162094D01*
X122365266Y-70162094D02*
X122127171Y-70162094D01*
X122127171Y-70162094D02*
X121936695Y-70114475D01*
X121936695Y-70114475D02*
X121841457Y-70066856D01*
X121841457Y-70066856D02*
X121793838Y-70019237D01*
X121793838Y-70019237D02*
X121746219Y-69923999D01*
X121746219Y-68971618D02*
X121746219Y-68876380D01*
X121746219Y-68876380D02*
X121793838Y-68781142D01*
X121793838Y-68781142D02*
X121841457Y-68733523D01*
X121841457Y-68733523D02*
X121936695Y-68685904D01*
X121936695Y-68685904D02*
X122127171Y-68638285D01*
X122127171Y-68638285D02*
X122365266Y-68638285D01*
X122365266Y-68638285D02*
X122555742Y-68685904D01*
X122555742Y-68685904D02*
X122650980Y-68733523D01*
X122650980Y-68733523D02*
X122698600Y-68781142D01*
X122698600Y-68781142D02*
X122746219Y-68876380D01*
X122746219Y-68876380D02*
X122746219Y-68971618D01*
X122746219Y-68971618D02*
X122698600Y-69066856D01*
X122698600Y-69066856D02*
X122650980Y-69114475D01*
X122650980Y-69114475D02*
X122555742Y-69162094D01*
X122555742Y-69162094D02*
X122365266Y-69209713D01*
X122365266Y-69209713D02*
X122127171Y-69209713D01*
X122127171Y-69209713D02*
X121936695Y-69162094D01*
X121936695Y-69162094D02*
X121841457Y-69114475D01*
X121841457Y-69114475D02*
X121793838Y-69066856D01*
X121793838Y-69066856D02*
X121746219Y-68971618D01*
X122222409Y-67876380D02*
X122270028Y-67733523D01*
X122270028Y-67733523D02*
X122317647Y-67685904D01*
X122317647Y-67685904D02*
X122412885Y-67638285D01*
X122412885Y-67638285D02*
X122555742Y-67638285D01*
X122555742Y-67638285D02*
X122650980Y-67685904D01*
X122650980Y-67685904D02*
X122698600Y-67733523D01*
X122698600Y-67733523D02*
X122746219Y-67828761D01*
X122746219Y-67828761D02*
X122746219Y-68209713D01*
X122746219Y-68209713D02*
X121746219Y-68209713D01*
X121746219Y-68209713D02*
X121746219Y-67876380D01*
X121746219Y-67876380D02*
X121793838Y-67781142D01*
X121793838Y-67781142D02*
X121841457Y-67733523D01*
X121841457Y-67733523D02*
X121936695Y-67685904D01*
X121936695Y-67685904D02*
X122031933Y-67685904D01*
X122031933Y-67685904D02*
X122127171Y-67733523D01*
X122127171Y-67733523D02*
X122174790Y-67781142D01*
X122174790Y-67781142D02*
X122222409Y-67876380D01*
X122222409Y-67876380D02*
X122222409Y-68209713D01*
X122746219Y-66685904D02*
X122746219Y-67257332D01*
X122746219Y-66971618D02*
X121746219Y-66971618D01*
X121746219Y-66971618D02*
X121889076Y-67066856D01*
X121889076Y-67066856D02*
X121984314Y-67162094D01*
X121984314Y-67162094D02*
X122031933Y-67257332D01*
D14*
X173101333Y-79542580D02*
X173053714Y-79590200D01*
X173053714Y-79590200D02*
X172910857Y-79637819D01*
X172910857Y-79637819D02*
X172815619Y-79637819D01*
X172815619Y-79637819D02*
X172672762Y-79590200D01*
X172672762Y-79590200D02*
X172577524Y-79494961D01*
X172577524Y-79494961D02*
X172529905Y-79399723D01*
X172529905Y-79399723D02*
X172482286Y-79209247D01*
X172482286Y-79209247D02*
X172482286Y-79066390D01*
X172482286Y-79066390D02*
X172529905Y-78875914D01*
X172529905Y-78875914D02*
X172577524Y-78780676D01*
X172577524Y-78780676D02*
X172672762Y-78685438D01*
X172672762Y-78685438D02*
X172815619Y-78637819D01*
X172815619Y-78637819D02*
X172910857Y-78637819D01*
X172910857Y-78637819D02*
X173053714Y-78685438D01*
X173053714Y-78685438D02*
X173101333Y-78733057D01*
X173482286Y-78733057D02*
X173529905Y-78685438D01*
X173529905Y-78685438D02*
X173625143Y-78637819D01*
X173625143Y-78637819D02*
X173863238Y-78637819D01*
X173863238Y-78637819D02*
X173958476Y-78685438D01*
X173958476Y-78685438D02*
X174006095Y-78733057D01*
X174006095Y-78733057D02*
X174053714Y-78828295D01*
X174053714Y-78828295D02*
X174053714Y-78923533D01*
X174053714Y-78923533D02*
X174006095Y-79066390D01*
X174006095Y-79066390D02*
X173434667Y-79637819D01*
X173434667Y-79637819D02*
X174053714Y-79637819D01*
D12*
X147328219Y-73843523D02*
X148042504Y-73843523D01*
X148042504Y-73843523D02*
X148185361Y-73891142D01*
X148185361Y-73891142D02*
X148280600Y-73986380D01*
X148280600Y-73986380D02*
X148328219Y-74129237D01*
X148328219Y-74129237D02*
X148328219Y-74224475D01*
X147328219Y-73462570D02*
X147328219Y-72843523D01*
X147328219Y-72843523D02*
X147709171Y-73176856D01*
X147709171Y-73176856D02*
X147709171Y-73033999D01*
X147709171Y-73033999D02*
X147756790Y-72938761D01*
X147756790Y-72938761D02*
X147804409Y-72891142D01*
X147804409Y-72891142D02*
X147899647Y-72843523D01*
X147899647Y-72843523D02*
X148137742Y-72843523D01*
X148137742Y-72843523D02*
X148232980Y-72891142D01*
X148232980Y-72891142D02*
X148280600Y-72938761D01*
X148280600Y-72938761D02*
X148328219Y-73033999D01*
X148328219Y-73033999D02*
X148328219Y-73319713D01*
X148328219Y-73319713D02*
X148280600Y-73414951D01*
X148280600Y-73414951D02*
X148232980Y-73462570D01*
X147328219Y-72224475D02*
X147328219Y-72129237D01*
X147328219Y-72129237D02*
X147375838Y-72033999D01*
X147375838Y-72033999D02*
X147423457Y-71986380D01*
X147423457Y-71986380D02*
X147518695Y-71938761D01*
X147518695Y-71938761D02*
X147709171Y-71891142D01*
X147709171Y-71891142D02*
X147947266Y-71891142D01*
X147947266Y-71891142D02*
X148137742Y-71938761D01*
X148137742Y-71938761D02*
X148232980Y-71986380D01*
X148232980Y-71986380D02*
X148280600Y-72033999D01*
X148280600Y-72033999D02*
X148328219Y-72129237D01*
X148328219Y-72129237D02*
X148328219Y-72224475D01*
X148328219Y-72224475D02*
X148280600Y-72319713D01*
X148280600Y-72319713D02*
X148232980Y-72367332D01*
X148232980Y-72367332D02*
X148137742Y-72414951D01*
X148137742Y-72414951D02*
X147947266Y-72462570D01*
X147947266Y-72462570D02*
X147709171Y-72462570D01*
X147709171Y-72462570D02*
X147518695Y-72414951D01*
X147518695Y-72414951D02*
X147423457Y-72367332D01*
X147423457Y-72367332D02*
X147375838Y-72319713D01*
X147375838Y-72319713D02*
X147328219Y-72224475D01*
X132222476Y-96988219D02*
X132222476Y-97702504D01*
X132222476Y-97702504D02*
X132174857Y-97845361D01*
X132174857Y-97845361D02*
X132079619Y-97940600D01*
X132079619Y-97940600D02*
X131936762Y-97988219D01*
X131936762Y-97988219D02*
X131841524Y-97988219D01*
X133222476Y-97988219D02*
X132651048Y-97988219D01*
X132936762Y-97988219D02*
X132936762Y-96988219D01*
X132936762Y-96988219D02*
X132841524Y-97131076D01*
X132841524Y-97131076D02*
X132746286Y-97226314D01*
X132746286Y-97226314D02*
X132651048Y-97273933D01*
X133841524Y-96988219D02*
X133936762Y-96988219D01*
X133936762Y-96988219D02*
X134032000Y-97035838D01*
X134032000Y-97035838D02*
X134079619Y-97083457D01*
X134079619Y-97083457D02*
X134127238Y-97178695D01*
X134127238Y-97178695D02*
X134174857Y-97369171D01*
X134174857Y-97369171D02*
X134174857Y-97607266D01*
X134174857Y-97607266D02*
X134127238Y-97797742D01*
X134127238Y-97797742D02*
X134079619Y-97892980D01*
X134079619Y-97892980D02*
X134032000Y-97940600D01*
X134032000Y-97940600D02*
X133936762Y-97988219D01*
X133936762Y-97988219D02*
X133841524Y-97988219D01*
X133841524Y-97988219D02*
X133746286Y-97940600D01*
X133746286Y-97940600D02*
X133698667Y-97892980D01*
X133698667Y-97892980D02*
X133651048Y-97797742D01*
X133651048Y-97797742D02*
X133603429Y-97607266D01*
X133603429Y-97607266D02*
X133603429Y-97369171D01*
X133603429Y-97369171D02*
X133651048Y-97178695D01*
X133651048Y-97178695D02*
X133698667Y-97083457D01*
X133698667Y-97083457D02*
X133746286Y-97035838D01*
X133746286Y-97035838D02*
X133841524Y-96988219D01*
X233094142Y-125028980D02*
X233046523Y-125076600D01*
X233046523Y-125076600D02*
X232903666Y-125124219D01*
X232903666Y-125124219D02*
X232808428Y-125124219D01*
X232808428Y-125124219D02*
X232665571Y-125076600D01*
X232665571Y-125076600D02*
X232570333Y-124981361D01*
X232570333Y-124981361D02*
X232522714Y-124886123D01*
X232522714Y-124886123D02*
X232475095Y-124695647D01*
X232475095Y-124695647D02*
X232475095Y-124552790D01*
X232475095Y-124552790D02*
X232522714Y-124362314D01*
X232522714Y-124362314D02*
X232570333Y-124267076D01*
X232570333Y-124267076D02*
X232665571Y-124171838D01*
X232665571Y-124171838D02*
X232808428Y-124124219D01*
X232808428Y-124124219D02*
X232903666Y-124124219D01*
X232903666Y-124124219D02*
X233046523Y-124171838D01*
X233046523Y-124171838D02*
X233094142Y-124219457D01*
X234046523Y-125124219D02*
X233475095Y-125124219D01*
X233760809Y-125124219D02*
X233760809Y-124124219D01*
X233760809Y-124124219D02*
X233665571Y-124267076D01*
X233665571Y-124267076D02*
X233570333Y-124362314D01*
X233570333Y-124362314D02*
X233475095Y-124409933D01*
X234665571Y-124124219D02*
X234760809Y-124124219D01*
X234760809Y-124124219D02*
X234856047Y-124171838D01*
X234856047Y-124171838D02*
X234903666Y-124219457D01*
X234903666Y-124219457D02*
X234951285Y-124314695D01*
X234951285Y-124314695D02*
X234998904Y-124505171D01*
X234998904Y-124505171D02*
X234998904Y-124743266D01*
X234998904Y-124743266D02*
X234951285Y-124933742D01*
X234951285Y-124933742D02*
X234903666Y-125028980D01*
X234903666Y-125028980D02*
X234856047Y-125076600D01*
X234856047Y-125076600D02*
X234760809Y-125124219D01*
X234760809Y-125124219D02*
X234665571Y-125124219D01*
X234665571Y-125124219D02*
X234570333Y-125076600D01*
X234570333Y-125076600D02*
X234522714Y-125028980D01*
X234522714Y-125028980D02*
X234475095Y-124933742D01*
X234475095Y-124933742D02*
X234427476Y-124743266D01*
X234427476Y-124743266D02*
X234427476Y-124505171D01*
X234427476Y-124505171D02*
X234475095Y-124314695D01*
X234475095Y-124314695D02*
X234522714Y-124219457D01*
X234522714Y-124219457D02*
X234570333Y-124171838D01*
X234570333Y-124171838D02*
X234665571Y-124124219D01*
X135198142Y-69274980D02*
X135150523Y-69322600D01*
X135150523Y-69322600D02*
X135007666Y-69370219D01*
X135007666Y-69370219D02*
X134912428Y-69370219D01*
X134912428Y-69370219D02*
X134769571Y-69322600D01*
X134769571Y-69322600D02*
X134674333Y-69227361D01*
X134674333Y-69227361D02*
X134626714Y-69132123D01*
X134626714Y-69132123D02*
X134579095Y-68941647D01*
X134579095Y-68941647D02*
X134579095Y-68798790D01*
X134579095Y-68798790D02*
X134626714Y-68608314D01*
X134626714Y-68608314D02*
X134674333Y-68513076D01*
X134674333Y-68513076D02*
X134769571Y-68417838D01*
X134769571Y-68417838D02*
X134912428Y-68370219D01*
X134912428Y-68370219D02*
X135007666Y-68370219D01*
X135007666Y-68370219D02*
X135150523Y-68417838D01*
X135150523Y-68417838D02*
X135198142Y-68465457D01*
X136150523Y-69370219D02*
X135579095Y-69370219D01*
X135864809Y-69370219D02*
X135864809Y-68370219D01*
X135864809Y-68370219D02*
X135769571Y-68513076D01*
X135769571Y-68513076D02*
X135674333Y-68608314D01*
X135674333Y-68608314D02*
X135579095Y-68655933D01*
X136531476Y-68465457D02*
X136579095Y-68417838D01*
X136579095Y-68417838D02*
X136674333Y-68370219D01*
X136674333Y-68370219D02*
X136912428Y-68370219D01*
X136912428Y-68370219D02*
X137007666Y-68417838D01*
X137007666Y-68417838D02*
X137055285Y-68465457D01*
X137055285Y-68465457D02*
X137102904Y-68560695D01*
X137102904Y-68560695D02*
X137102904Y-68655933D01*
X137102904Y-68655933D02*
X137055285Y-68798790D01*
X137055285Y-68798790D02*
X136483857Y-69370219D01*
X136483857Y-69370219D02*
X137102904Y-69370219D01*
X147638142Y-37865980D02*
X147590523Y-37913600D01*
X147590523Y-37913600D02*
X147447666Y-37961219D01*
X147447666Y-37961219D02*
X147352428Y-37961219D01*
X147352428Y-37961219D02*
X147209571Y-37913600D01*
X147209571Y-37913600D02*
X147114333Y-37818361D01*
X147114333Y-37818361D02*
X147066714Y-37723123D01*
X147066714Y-37723123D02*
X147019095Y-37532647D01*
X147019095Y-37532647D02*
X147019095Y-37389790D01*
X147019095Y-37389790D02*
X147066714Y-37199314D01*
X147066714Y-37199314D02*
X147114333Y-37104076D01*
X147114333Y-37104076D02*
X147209571Y-37008838D01*
X147209571Y-37008838D02*
X147352428Y-36961219D01*
X147352428Y-36961219D02*
X147447666Y-36961219D01*
X147447666Y-36961219D02*
X147590523Y-37008838D01*
X147590523Y-37008838D02*
X147638142Y-37056457D01*
X148590523Y-37961219D02*
X148019095Y-37961219D01*
X148304809Y-37961219D02*
X148304809Y-36961219D01*
X148304809Y-36961219D02*
X148209571Y-37104076D01*
X148209571Y-37104076D02*
X148114333Y-37199314D01*
X148114333Y-37199314D02*
X148019095Y-37246933D01*
X149542904Y-37961219D02*
X148971476Y-37961219D01*
X149257190Y-37961219D02*
X149257190Y-36961219D01*
X149257190Y-36961219D02*
X149161952Y-37104076D01*
X149161952Y-37104076D02*
X149066714Y-37199314D01*
X149066714Y-37199314D02*
X148971476Y-37246933D01*
D15*
%TO.C,J5*%
X124540000Y-40146000D02*
X124540000Y-42906000D01*
X129730000Y-40146000D02*
X124540000Y-40146000D01*
X129730000Y-40146000D02*
X129730000Y-42906000D01*
X129730000Y-42906000D02*
X124540000Y-42906000D01*
X131000000Y-40146000D02*
X132380000Y-40146000D01*
X132380000Y-40146000D02*
X132380000Y-41526000D01*
%TO.C,J2*%
X124540000Y-44545000D02*
X124540000Y-47305000D01*
X129730000Y-44545000D02*
X124540000Y-44545000D01*
X129730000Y-44545000D02*
X129730000Y-47305000D01*
X129730000Y-47305000D02*
X124540000Y-47305000D01*
X131000000Y-44545000D02*
X132380000Y-44545000D01*
X132380000Y-44545000D02*
X132380000Y-45925000D01*
%TO.C,U100A1*%
X139124000Y-40124000D02*
X139124000Y-60564000D01*
X139124000Y-60564000D02*
X144424000Y-60564000D01*
X140774000Y-40124000D02*
X139124000Y-40124000D01*
X144424000Y-40124000D02*
X142774000Y-40124000D01*
X144424000Y-60564000D02*
X144424000Y-40124000D01*
X142774000Y-40124000D02*
G75*
G02*
X140774000Y-40124000I-1000000J0D01*
G01*
%TO.C,U103A1*%
X191201000Y-37004000D02*
X191201000Y-77764000D01*
X191201000Y-77764000D02*
X196661000Y-77764000D01*
X198661000Y-77764000D02*
X204121000Y-77764000D01*
X204121000Y-37004000D02*
X191201000Y-37004000D01*
X204121000Y-77764000D02*
X204121000Y-37004000D01*
X196661000Y-77764000D02*
G75*
G02*
X198661000Y-77764000I1000000J0D01*
G01*
%TO.C,C6*%
X152171748Y-123599000D02*
X152694252Y-123599000D01*
X152171748Y-125069000D02*
X152694252Y-125069000D01*
%TO.C,J6*%
X124540000Y-53039000D02*
X124540000Y-55799000D01*
X129730000Y-53039000D02*
X124540000Y-53039000D01*
X129730000Y-53039000D02*
X129730000Y-55799000D01*
X129730000Y-55799000D02*
X124540000Y-55799000D01*
X131000000Y-53039000D02*
X132380000Y-53039000D01*
X132380000Y-53039000D02*
X132380000Y-54419000D01*
%TO.C,U102B1*%
X172198000Y-82196000D02*
X172198000Y-122956000D01*
X172198000Y-122956000D02*
X177658000Y-122956000D01*
X179658000Y-122956000D02*
X185118000Y-122956000D01*
X185118000Y-82196000D02*
X172198000Y-82196000D01*
X185118000Y-122956000D02*
X185118000Y-82196000D01*
X177658000Y-122956000D02*
G75*
G02*
X179658000Y-122956000I1000000J0D01*
G01*
%TO.C,J4*%
X124540000Y-57285000D02*
X124540000Y-60045000D01*
X129730000Y-57285000D02*
X124540000Y-57285000D01*
X129730000Y-57285000D02*
X129730000Y-60045000D01*
X129730000Y-60045000D02*
X124540000Y-60045000D01*
X131000000Y-57285000D02*
X132380000Y-57285000D01*
X132380000Y-57285000D02*
X132380000Y-58665000D01*
%TO.C,U103B1*%
X191518000Y-82196000D02*
X191518000Y-122956000D01*
X191518000Y-122956000D02*
X196978000Y-122956000D01*
X198978000Y-122956000D02*
X204438000Y-122956000D01*
X204438000Y-82196000D02*
X191518000Y-82196000D01*
X204438000Y-122956000D02*
X204438000Y-82196000D01*
X196978000Y-122956000D02*
G75*
G02*
X198978000Y-122956000I1000000J0D01*
G01*
%TO.C,U104B1*%
X210858000Y-82196000D02*
X210858000Y-122956000D01*
X210858000Y-122956000D02*
X216318000Y-122956000D01*
X218318000Y-122956000D02*
X223778000Y-122956000D01*
X223778000Y-82196000D02*
X210858000Y-82196000D01*
X223778000Y-122956000D02*
X223778000Y-82196000D01*
X216318000Y-122956000D02*
G75*
G02*
X218318000Y-122956000I1000000J0D01*
G01*
%TO.C,J9*%
X137747000Y-93113000D02*
X137747000Y-87923000D01*
X140507000Y-87923000D02*
X137747000Y-87923000D01*
X140507000Y-93113000D02*
X137747000Y-93113000D01*
X140507000Y-93113000D02*
X140507000Y-87923000D01*
X140507000Y-94383000D02*
X140507000Y-95763000D01*
X140507000Y-95763000D02*
X139127000Y-95763000D01*
%TO.C,C9*%
X210255748Y-123907000D02*
X210778252Y-123907000D01*
X210255748Y-125377000D02*
X210778252Y-125377000D01*
%TO.C,J600*%
D10*
X257370000Y-38430000D02*
X267530000Y-38430000D01*
X267530000Y-122250000D01*
X257370000Y-122250000D01*
X257370000Y-38430000D01*
D15*
%TO.C,J7*%
X136901000Y-34534000D02*
X136901000Y-37294000D01*
X142091000Y-34534000D02*
X136901000Y-34534000D01*
X142091000Y-34534000D02*
X142091000Y-37294000D01*
X142091000Y-37294000D02*
X136901000Y-37294000D01*
X143361000Y-34534000D02*
X144741000Y-34534000D01*
X144741000Y-34534000D02*
X144741000Y-35914000D01*
%TO.C,U101A1*%
X152451000Y-37004000D02*
X152451000Y-77764000D01*
X152451000Y-77764000D02*
X157911000Y-77764000D01*
X159911000Y-77764000D02*
X165371000Y-77764000D01*
X165371000Y-37004000D02*
X152451000Y-37004000D01*
X165371000Y-77764000D02*
X165371000Y-37004000D01*
X157911000Y-77764000D02*
G75*
G02*
X159911000Y-77764000I1000000J0D01*
G01*
%TO.C,C4*%
X208768000Y-79689748D02*
X208768000Y-80212252D01*
X210238000Y-79689748D02*
X210238000Y-80212252D01*
%TO.C,J8*%
X143673000Y-93113000D02*
X143673000Y-87923000D01*
X146433000Y-87923000D02*
X143673000Y-87923000D01*
X146433000Y-93113000D02*
X143673000Y-93113000D01*
X146433000Y-93113000D02*
X146433000Y-87923000D01*
X146433000Y-94383000D02*
X146433000Y-95763000D01*
X146433000Y-95763000D02*
X145053000Y-95763000D01*
%TO.C,C7*%
X171553748Y-123643000D02*
X172076252Y-123643000D01*
X171553748Y-125113000D02*
X172076252Y-125113000D01*
%TO.C,U105A1*%
X229881000Y-37004000D02*
X229881000Y-77764000D01*
X229881000Y-77764000D02*
X235341000Y-77764000D01*
X237341000Y-77764000D02*
X242801000Y-77764000D01*
X242801000Y-37004000D02*
X229881000Y-37004000D01*
X242801000Y-77764000D02*
X242801000Y-37004000D01*
X235341000Y-77764000D02*
G75*
G02*
X237341000Y-77764000I1000000J0D01*
G01*
%TO.C,J11*%
X124918000Y-93113000D02*
X124918000Y-87923000D01*
X127678000Y-87923000D02*
X124918000Y-87923000D01*
X127678000Y-93113000D02*
X124918000Y-93113000D01*
X127678000Y-93113000D02*
X127678000Y-87923000D01*
X127678000Y-94383000D02*
X127678000Y-95763000D01*
X127678000Y-95763000D02*
X126298000Y-95763000D01*
%TO.C,J29*%
X138330000Y-67064000D02*
X138330000Y-69824000D01*
X143520000Y-67064000D02*
X138330000Y-67064000D01*
X143520000Y-67064000D02*
X143520000Y-69824000D01*
X143520000Y-69824000D02*
X138330000Y-69824000D01*
X144790000Y-67064000D02*
X146170000Y-67064000D01*
X146170000Y-67064000D02*
X146170000Y-68444000D01*
%TO.C,C5*%
X228093000Y-79702748D02*
X228093000Y-80225252D01*
X229563000Y-79702748D02*
X229563000Y-80225252D01*
%TO.C,J31*%
X138330000Y-76244000D02*
X138330000Y-79004000D01*
X143520000Y-76244000D02*
X138330000Y-76244000D01*
X143520000Y-76244000D02*
X143520000Y-79004000D01*
X143520000Y-79004000D02*
X138330000Y-79004000D01*
X144790000Y-76244000D02*
X146170000Y-76244000D01*
X146170000Y-76244000D02*
X146170000Y-77624000D01*
%TO.C,U105B1*%
X230198000Y-82196000D02*
X230198000Y-122956000D01*
X230198000Y-122956000D02*
X235658000Y-122956000D01*
X237658000Y-122956000D02*
X243118000Y-122956000D01*
X243118000Y-82196000D02*
X230198000Y-82196000D01*
X243118000Y-122956000D02*
X243118000Y-82196000D01*
X235658000Y-122956000D02*
G75*
G02*
X237658000Y-122956000I1000000J0D01*
G01*
%TO.C,C1*%
X150829000Y-79749248D02*
X150829000Y-80271752D01*
X152299000Y-79749248D02*
X152299000Y-80271752D01*
%TO.C,C3*%
X189374000Y-79730748D02*
X189374000Y-80253252D01*
X190844000Y-79730748D02*
X190844000Y-80253252D01*
%TO.C,U102A1*%
X171881000Y-37004000D02*
X171881000Y-77764000D01*
X171881000Y-77764000D02*
X177341000Y-77764000D01*
X179341000Y-77764000D02*
X184801000Y-77764000D01*
X184801000Y-37004000D02*
X171881000Y-37004000D01*
X184801000Y-77764000D02*
X184801000Y-37004000D01*
X177341000Y-77764000D02*
G75*
G02*
X179341000Y-77764000I1000000J0D01*
G01*
%TO.C,J1*%
X124540000Y-48792000D02*
X124540000Y-51552000D01*
X129730000Y-48792000D02*
X124540000Y-48792000D01*
X129730000Y-48792000D02*
X129730000Y-51552000D01*
X129730000Y-51552000D02*
X124540000Y-51552000D01*
X131000000Y-48792000D02*
X132380000Y-48792000D01*
X132380000Y-48792000D02*
X132380000Y-50172000D01*
%TO.C,C8*%
X190740748Y-123796000D02*
X191263252Y-123796000D01*
X190740748Y-125266000D02*
X191263252Y-125266000D01*
%TO.C,J3*%
X138330000Y-62474000D02*
X138330000Y-65234000D01*
X143520000Y-62474000D02*
X138330000Y-62474000D01*
X143520000Y-62474000D02*
X143520000Y-65234000D01*
X143520000Y-65234000D02*
X138330000Y-65234000D01*
X144790000Y-62474000D02*
X146170000Y-62474000D01*
X146170000Y-62474000D02*
X146170000Y-63854000D01*
%TO.C,U104A1*%
X210541000Y-37004000D02*
X210541000Y-77764000D01*
X210541000Y-77764000D02*
X216001000Y-77764000D01*
X218001000Y-77764000D02*
X223461000Y-77764000D01*
X223461000Y-37004000D02*
X210541000Y-37004000D01*
X223461000Y-77764000D02*
X223461000Y-37004000D01*
X216001000Y-77764000D02*
G75*
G02*
X218001000Y-77764000I1000000J0D01*
G01*
%TO.C,U101B1*%
X152848000Y-82196000D02*
X152848000Y-122956000D01*
X152848000Y-122956000D02*
X158308000Y-122956000D01*
X160308000Y-122956000D02*
X165768000Y-122956000D01*
X165768000Y-82196000D02*
X152848000Y-82196000D01*
X165768000Y-122956000D02*
X165768000Y-82196000D01*
X158308000Y-122956000D02*
G75*
G02*
X160308000Y-122956000I1000000J0D01*
G01*
%TO.C,U100B1*%
X126245000Y-63823000D02*
X126245000Y-84263000D01*
X126245000Y-84263000D02*
X131545000Y-84263000D01*
X127895000Y-63823000D02*
X126245000Y-63823000D01*
X131545000Y-63823000D02*
X129895000Y-63823000D01*
X131545000Y-84263000D02*
X131545000Y-63823000D01*
X129895000Y-63823000D02*
G75*
G02*
X127895000Y-63823000I-1000000J0D01*
G01*
%TO.C,C2*%
X170050000Y-79724748D02*
X170050000Y-80247252D01*
X171520000Y-79724748D02*
X171520000Y-80247252D01*
%TO.C,J30*%
X138330000Y-71654000D02*
X138330000Y-74414000D01*
X143520000Y-71654000D02*
X138330000Y-71654000D01*
X143520000Y-71654000D02*
X143520000Y-74414000D01*
X143520000Y-74414000D02*
X138330000Y-74414000D01*
X144790000Y-71654000D02*
X146170000Y-71654000D01*
X146170000Y-71654000D02*
X146170000Y-73034000D01*
%TO.C,J10*%
X131652000Y-93113000D02*
X131652000Y-87923000D01*
X134412000Y-87923000D02*
X131652000Y-87923000D01*
X134412000Y-93113000D02*
X131652000Y-93113000D01*
X134412000Y-93113000D02*
X134412000Y-87923000D01*
X134412000Y-94383000D02*
X134412000Y-95763000D01*
X134412000Y-95763000D02*
X133032000Y-95763000D01*
%TO.C,C10*%
X229857748Y-123828000D02*
X230380252Y-123828000D01*
X229857748Y-125298000D02*
X230380252Y-125298000D01*
%TD*%
M02*
