M48
; DRILL file {KiCad 9.0.9-9.0.9~ubuntu24.04.1} date 2026-06-20T19:04:35-0300
; FORMAT={-:-/ absolute / metric / decimal}
; #@! TF.CreationDate,2026-06-20T19:04:35-03:00
; #@! TF.GenerationSoftware,Kicad,Pcbnew,9.0.9-9.0.9~ubuntu24.04.1
; #@! TF.FileFunction,Plated,1,2,PTH
FMAT,2
METRIC
; #@! TA.AperFunction,Plated,PTH,ViaDrill
T1C0.100
; #@! TA.AperFunction,Plated,PTH,ViaDrill
T2C0.300
; #@! TA.AperFunction,Plated,PTH,ComponentDrill
T3C0.700
; #@! TA.AperFunction,Plated,PTH,ComponentDrill
T4C0.750
; #@! TA.AperFunction,Plated,PTH,ComponentDrill
T5C0.800
; #@! TA.AperFunction,Plated,PTH,ComponentDrill
T6C1.000
%
G90
G05
T1
X254.73Y-86.69
T2
X133.89Y-54.08
X133.96Y-89.91
X133.99Y-95.82
X136.51Y-95.87
X137.32Y-90.15
X141.06Y-51.43
X141.55Y-74.66
X141.63Y-34.21
X144.82Y-52.48
X145.83Y-57.07
X146.43Y-35.3
X147.04Y-72.25
X150.34Y-60.1
X153.82Y-54.95
X155.2Y-54.88
X156.62Y-54.91
X159.99Y-112.25
X163.59Y-82.4
X164.41Y-56.84
X164.69Y-81.24
X164.71Y-89.8
X164.71Y-91.06
X164.86Y-62.08
X165.03Y-60.85
X165.594Y-93.05
X166.63Y-88.91
X166.69Y-36.26
X166.89Y-96.76
X166.97Y-95.54
X168.43Y-56.84
X170.06Y-85.97
X171.78Y-83.74
X171.78Y-92.23
X174.52Y-77.32
X174.54Y-91.28
X177.92Y-90.4
X180.53Y-112.05
X181.72Y-96.74
X181.76Y-123.25
X182.22Y-59.79
X182.63Y-128.25
X182.73Y-95.66
X183.31Y-62.01
X183.76Y-95.33
X183.83Y-119.42
X183.93Y-79.97
X184.39Y-61.13
X184.8Y-104.22
X185.68Y-100.81
X185.94Y-54.74
X186.55Y-82.4
X186.56Y-117.92
X188.07Y-56.0
X188.19Y-65.51
X188.2Y-85.96
X189.86Y-107.09
X189.89Y-41.87
X189.93Y-126.55
X190.78Y-51.83
X191.0Y-124.52
X191.82Y-97.16
X191.84Y-110.75
X192.4Y-38.41
X192.89Y-89.52
X192.93Y-112.05
X193.14Y-68.53
X193.14Y-70.0
X193.17Y-65.48
X193.94Y-73.54
X193.96Y-67.31
X195.97Y-62.75
X197.57Y-109.82
X197.713Y-94.27
X197.91Y-58.69
X197.92Y-70.42
X199.03Y-76.16
X199.2Y-61.06
X200.08Y-57.79
X200.08Y-73.663
X200.59Y-97.22
X201.18Y-101.6
X201.49Y-67.92
X201.5Y-95.08
X201.93Y-109.8
X202.03Y-82.56
X202.16Y-98.19
X202.21Y-94.27
X203.74Y-57.02
X204.89Y-61.95
X205.03Y-63.764
X205.37Y-98.02
X205.97Y-96.97
X206.66Y-59.75
X206.66Y-64.59
X206.99Y-70.74
X207.16Y-117.96
X207.58Y-94.67
X207.8Y-53.88
X207.92Y-69.11
X207.95Y-70.68
X207.97Y-78.33
X208.85Y-64.77
X208.93Y-50.93
X212.19Y-85.32
X212.23Y-83.09
X212.35Y-116.94
X214.53Y-68.65
X215.15Y-42.1
X215.182Y-77.83
X216.13Y-96.43
X216.24Y-43.52
X216.28Y-57.26
X216.85Y-118.25
X217.0Y-86.37
X217.37Y-56.02
X217.39Y-64.37
X217.81Y-80.12
X218.01Y-54.71
X218.06Y-45.5
X218.22Y-62.39
X218.28Y-58.63
X218.32Y-88.91
X218.32Y-120.74
X219.05Y-41.25
X219.5Y-123.27
X219.54Y-91.59
X219.64Y-90.25
X219.86Y-52.01
X219.99Y-48.41
X220.4Y-109.33
X220.85Y-40.14
X221.24Y-125.88
X221.75Y-96.23
X221.96Y-69.97
X222.03Y-49.68
X222.1Y-44.58
X222.95Y-35.02
X223.2Y-70.06
X223.37Y-80.16
X223.99Y-47.17
X224.01Y-115.72
X224.06Y-39.09
X224.68Y-57.14
X224.68Y-68.72
X225.38Y-76.3
X226.85Y-78.72
X230.37Y-65.39
X230.48Y-95.36
X231.55Y-81.32
X232.09Y-61.11
X232.28Y-63.67
X235.25Y-94.12
X238.89Y-104.27
X239.41Y-73.7
X240.78Y-75.04
X244.06Y-73.77
X244.17Y-63.62
X245.03Y-34.21
X246.25Y-91.43
X246.47Y-58.57
X246.47Y-61.07
X246.48Y-63.61
X246.54Y-56.07
X246.57Y-66.21
X246.65Y-96.52
X246.67Y-68.68
X246.72Y-71.16
X250.16Y-102.79
X250.18Y-115.63
X250.26Y-95.2
X251.01Y-100.68
X251.06Y-118.12
X251.93Y-120.68
X251.96Y-98.79
X252.27Y-86.71
X252.28Y-77.58
X252.47Y-91.47
X252.98Y-96.69
X253.0Y-82.66
X253.03Y-51.43
X253.04Y-123.18
X253.08Y-49.19
X253.97Y-83.92
X254.15Y-51.12
X254.16Y-110.87
X254.2Y-44.619
X254.2Y-114.61
X254.21Y-80.09
X255.11Y-39.15
X255.13Y-109.44
X255.17Y-117.16
X255.22Y-53.65
X256.02Y-126.77
X256.05Y-41.2
X256.06Y-125.76
X256.09Y-96.16
X256.26Y-44.87
X256.3Y-57.58
X256.3Y-62.69
X256.34Y-60.13
X256.45Y-54.55
X256.48Y-47.08
X256.55Y-67.68
X256.59Y-65.05
X256.7Y-70.17
X256.79Y-72.75
X256.83Y-75.22
X257.07Y-80.35
X257.17Y-85.46
X257.35Y-40.09
X257.36Y-90.44
X257.38Y-47.27
X257.46Y-94.36
X257.51Y-118.45
X258.16Y-77.77
X261.22Y-52.27
X261.28Y-42.2
X263.24Y-54.99
T3
X131.39Y-56.805
X131.49Y-46.705
X132.15Y-66.555
X136.47Y-56.805
X136.57Y-46.705
X137.23Y-66.555
X139.12Y-94.48
X139.12Y-99.56
X140.07Y-102.76
X140.07Y-107.84
X144.51Y-102.85
X144.51Y-107.93
X148.93Y-102.87
X148.93Y-107.95
X152.56Y-102.93
X152.56Y-108.01
X153.64Y-91.84
X153.64Y-96.92
T4
X141.16Y-112.8
X142.43Y-112.8
X143.7Y-112.8
X150.22Y-112.24
X151.49Y-112.24
X152.76Y-112.24
T5
X131.42Y-91.13
X131.42Y-94.63
X142.565Y-91.83
X142.565Y-94.37
X142.565Y-96.91
X142.565Y-99.45
X143.9Y-38.51
X143.9Y-41.05
X143.9Y-43.59
X143.9Y-46.13
X143.9Y-48.67
X143.9Y-51.21
X143.9Y-53.75
X143.9Y-56.29
X143.9Y-58.83
X143.9Y-61.37
X143.9Y-63.91
X143.9Y-66.45
X143.9Y-68.99
X143.9Y-71.53
X150.185Y-91.83
X150.185Y-94.37
X150.185Y-96.91
X150.185Y-99.45
X151.52Y-38.51
X151.52Y-41.05
X151.52Y-43.59
X151.52Y-46.13
X151.52Y-48.67
X151.52Y-51.21
X151.52Y-53.75
X151.52Y-56.29
X151.52Y-58.83
X151.52Y-61.37
X151.52Y-63.91
X151.52Y-66.45
X151.52Y-68.99
X151.52Y-71.53
X159.14Y-95.01
X159.14Y-98.51
X163.685Y-38.5
X163.685Y-41.04
X163.685Y-43.58
X163.685Y-46.12
X163.685Y-48.66
X163.685Y-51.2
X163.685Y-53.74
X168.43Y-99.39
X168.43Y-101.93
X168.43Y-104.47
X168.43Y-107.01
X168.43Y-109.55
X168.43Y-112.09
X168.43Y-114.63
X168.44Y-68.45
X168.44Y-70.99
X168.44Y-73.53
X168.44Y-76.07
X168.44Y-78.61
X168.44Y-81.15
X168.44Y-83.69
X171.305Y-38.5
X171.305Y-41.04
X171.305Y-43.58
X171.305Y-46.12
X171.305Y-48.66
X171.305Y-51.2
X171.305Y-53.74
X176.05Y-99.39
X176.05Y-101.93
X176.05Y-104.47
X176.05Y-107.01
X176.05Y-109.55
X176.05Y-112.09
X176.05Y-114.63
X176.06Y-68.45
X176.06Y-70.99
X176.06Y-73.53
X176.06Y-76.07
X176.06Y-78.61
X176.06Y-81.15
X176.06Y-83.69
X182.08Y-68.45
X182.08Y-70.99
X182.08Y-73.53
X182.08Y-76.07
X182.08Y-78.61
X182.08Y-81.15
X182.08Y-83.69
X187.98Y-38.81
X187.98Y-41.35
X187.98Y-43.89
X187.98Y-46.43
X187.98Y-48.97
X187.98Y-51.51
X187.98Y-54.05
X189.7Y-68.45
X189.7Y-70.99
X189.7Y-73.53
X189.7Y-76.07
X189.7Y-78.61
X189.7Y-81.15
X189.7Y-83.69
X195.6Y-38.81
X195.6Y-41.35
X195.6Y-43.89
X195.6Y-46.43
X195.6Y-48.97
X195.6Y-51.51
X195.6Y-54.05
X196.04Y-66.0
X196.04Y-68.54
X196.04Y-71.08
X196.04Y-73.62
X196.04Y-76.16
X196.04Y-78.7
X196.04Y-81.24
X196.04Y-83.78
X196.07Y-99.36
X196.07Y-101.9
X196.07Y-104.44
X196.07Y-106.98
X196.07Y-109.52
X196.07Y-112.06
X196.07Y-114.6
X203.66Y-66.0
X203.66Y-68.54
X203.66Y-71.08
X203.66Y-73.62
X203.66Y-76.16
X203.66Y-78.7
X203.66Y-81.24
X203.66Y-83.78
X203.69Y-99.36
X203.69Y-101.9
X203.69Y-104.44
X203.69Y-106.98
X203.69Y-109.52
X203.69Y-112.06
X203.69Y-114.6
X210.43Y-47.12
X210.43Y-49.66
X210.43Y-52.2
X210.43Y-54.74
X210.43Y-57.28
X210.43Y-59.82
X210.43Y-62.36
X210.43Y-64.9
X210.43Y-67.44
X210.43Y-69.98
X210.43Y-72.52
X210.43Y-75.06
X210.43Y-77.6
X210.43Y-80.14
X210.43Y-82.68
X210.43Y-85.22
X210.43Y-87.76
X210.43Y-90.3
X210.43Y-92.84
X210.43Y-95.38
X210.43Y-97.92
X210.43Y-100.46
X210.43Y-103.0
X210.43Y-105.54
X210.43Y-108.08
X210.43Y-110.62
X210.43Y-113.16
X210.43Y-115.7
X210.43Y-118.24
X210.43Y-120.78
X210.43Y-123.32
X210.43Y-125.86
X233.29Y-47.12
X233.29Y-49.66
X233.29Y-52.2
X233.29Y-54.74
X233.29Y-57.28
X233.29Y-59.82
X233.29Y-62.36
X233.29Y-64.9
X233.29Y-67.44
X233.29Y-69.98
X233.29Y-72.52
X233.29Y-75.06
X233.29Y-77.6
X233.29Y-80.14
X233.29Y-82.68
X233.29Y-85.22
X233.29Y-87.76
X233.29Y-90.3
X233.29Y-92.84
X233.29Y-95.38
X233.29Y-97.92
X233.29Y-100.46
X233.29Y-103.0
X233.29Y-105.54
X233.29Y-108.08
X233.29Y-110.62
X233.29Y-113.16
X233.29Y-115.7
X233.29Y-118.24
X233.29Y-120.78
X233.29Y-123.32
X233.29Y-125.86
X248.4Y-47.08
X248.4Y-49.62
X248.4Y-52.16
X248.4Y-54.7
X248.4Y-57.24
X248.4Y-59.78
X248.4Y-62.32
X248.4Y-64.86
X248.4Y-67.4
X248.4Y-69.94
X248.4Y-72.48
X248.4Y-75.02
X248.4Y-77.56
X248.4Y-80.1
X248.4Y-82.64
X248.4Y-85.18
X248.4Y-87.72
X248.4Y-90.26
X248.4Y-92.8
X248.4Y-95.34
X248.4Y-97.88
X248.4Y-100.42
X248.4Y-102.96
X248.4Y-105.5
X248.4Y-108.04
X248.4Y-110.58
X248.4Y-113.12
X248.4Y-115.66
X248.4Y-118.2
X248.4Y-120.74
X248.4Y-123.28
X248.4Y-125.82
X259.91Y-40.97
X259.91Y-43.51
X259.91Y-46.05
X259.91Y-48.59
X259.91Y-51.13
X259.91Y-53.67
X259.91Y-56.21
X259.91Y-58.75
X259.91Y-61.29
X259.91Y-63.83
X259.91Y-66.37
X259.91Y-68.91
X259.91Y-71.45
X259.91Y-73.99
X259.91Y-76.53
X259.91Y-79.07
X259.91Y-81.61
X259.91Y-84.15
X259.91Y-86.69
X259.91Y-89.23
X259.91Y-91.77
X259.91Y-94.31
X259.91Y-96.85
X259.91Y-99.39
X259.91Y-101.93
X259.91Y-104.47
X259.91Y-107.01
X259.91Y-109.55
X259.91Y-112.09
X259.91Y-114.63
X259.91Y-117.17
X259.91Y-119.71
X262.45Y-40.97
X262.45Y-43.51
X262.45Y-46.05
X262.45Y-48.59
X262.45Y-51.13
X262.45Y-53.67
X262.45Y-56.21
X262.45Y-58.75
X262.45Y-61.29
X262.45Y-63.83
X262.45Y-66.37
X262.45Y-68.91
X262.45Y-71.45
X262.45Y-73.99
X262.45Y-76.53
X262.45Y-79.07
X262.45Y-81.61
X262.45Y-84.15
X262.45Y-86.69
X262.45Y-89.23
X262.45Y-91.77
X262.45Y-94.31
X262.45Y-96.85
X262.45Y-99.39
X262.45Y-101.93
X262.45Y-104.47
X262.45Y-107.01
X262.45Y-109.55
X262.45Y-112.09
X262.45Y-114.63
X262.45Y-117.17
X262.45Y-119.71
X264.99Y-40.97
X264.99Y-43.51
X264.99Y-46.05
X264.99Y-48.59
X264.99Y-51.13
X264.99Y-53.67
X264.99Y-56.21
X264.99Y-58.75
X264.99Y-61.29
X264.99Y-63.83
X264.99Y-66.37
X264.99Y-68.91
X264.99Y-71.45
X264.99Y-73.99
X264.99Y-76.53
X264.99Y-79.07
X264.99Y-81.61
X264.99Y-84.15
X264.99Y-86.69
X264.99Y-89.23
X264.99Y-91.77
X264.99Y-94.31
X264.99Y-96.85
X264.99Y-99.39
X264.99Y-101.93
X264.99Y-104.47
X264.99Y-107.01
X264.99Y-109.55
X264.99Y-112.09
X264.99Y-114.63
X264.99Y-117.17
X264.99Y-119.71
T6
X127.36Y-43.6
X127.36Y-46.14
X127.4Y-67.225
X127.4Y-69.765
X127.42Y-53.58
X127.42Y-56.12
X130.23Y-104.15
X132.77Y-104.15
X136.05Y-50.58
X142.73Y-85.64
X156.82Y-38.72
X156.82Y-41.26
X156.82Y-43.8
X159.36Y-38.72
X159.36Y-41.26
X159.36Y-43.8
X161.94Y-121.98
X161.94Y-124.52
X164.48Y-121.98
X164.48Y-124.52
X167.02Y-121.98
X167.02Y-124.52
X169.56Y-121.98
X169.56Y-124.52
X172.1Y-121.98
X172.1Y-124.52
X174.64Y-121.98
X174.64Y-124.52
X174.905Y-41.1
X174.905Y-43.64
X174.905Y-46.18
X174.905Y-48.72
X174.905Y-51.26
X177.18Y-121.98
X177.18Y-124.52
X177.445Y-41.1
X177.445Y-43.64
X177.445Y-46.18
X177.445Y-48.72
X177.445Y-51.26
X179.72Y-121.98
X179.72Y-124.52
X181.39Y-38.15
X181.445Y-40.95
X181.445Y-43.49
X181.445Y-46.03
X181.445Y-48.57
X181.445Y-51.11
X183.985Y-40.95
X183.985Y-43.49
X183.985Y-46.03
X183.985Y-48.57
X183.985Y-51.11
X186.64Y-61.85
X193.13Y-61.85
X200.095Y-46.2
X200.095Y-48.74
X200.095Y-51.28
X200.095Y-53.82
X202.635Y-46.2
X202.635Y-48.74
X202.635Y-51.28
X202.635Y-53.82
X205.24Y-123.21
X206.28Y-55.54
X207.01Y-38.18
X211.43Y-38.16
X226.56Y-37.71
X230.16Y-37.72
M30
